<svg xmlns="http://www.w3.org/2000/svg" xmlns:xlink="http://www.w3.org/1999/xlink" width="500" zoomAndPan="magnify" viewBox="0 0 375 374.999991" height="500" preserveAspectRatio="xMidYMid meet" version="1.0"><defs><g/><linearGradient x1="0" gradientTransform="matrix(0.75, 0, 0, 0.75, 0.0000045, 0)" y1="0" x2="499.999979" gradientUnits="userSpaceOnUse" y2="499.999979" id="b111f17214"><stop stop-opacity="1" stop-color="rgb(0%, 0%, 0%)" offset="0"/><stop stop-opacity="1" stop-color="rgb(0.0808716%, 0.0778198%, 0.312805%)" offset="0.00390625"/><stop stop-opacity="1" stop-color="rgb(0.161743%, 0.15564%, 0.627136%)" offset="0.0078125"/><stop stop-opacity="1" stop-color="rgb(0.242615%, 0.233459%, 0.941467%)" offset="0.0117187"/><stop stop-opacity="1" stop-color="rgb(0.323486%, 0.311279%, 1.255798%)" offset="0.015625"/><stop stop-opacity="1" stop-color="rgb(0.404358%, 0.389099%, 1.568604%)" offset="0.0195312"/><stop stop-opacity="1" stop-color="rgb(0.486755%, 0.468445%, 1.882935%)" offset="0.0234375"/><stop stop-opacity="1" stop-color="rgb(0.567627%, 0.546265%, 2.197266%)" offset="0.0273438"/><stop stop-opacity="1" stop-color="rgb(0.648499%, 0.624084%, 2.511597%)" offset="0.03125"/><stop stop-opacity="1" stop-color="rgb(0.72937%, 0.701904%, 2.825928%)" offset="0.0351562"/><stop stop-opacity="1" stop-color="rgb(0.811768%, 0.779724%, 3.140259%)" offset="0.0390625"/><stop stop-opacity="1" stop-color="rgb(0.892639%, 0.857544%, 3.453064%)" offset="0.0429687"/><stop stop-opacity="1" stop-color="rgb(0.973511%, 0.93689%, 3.767395%)" offset="0.046875"/><stop stop-opacity="1" stop-color="rgb(1.054382%, 1.014709%, 4.081726%)" offset="0.0507812"/><stop stop-opacity="1" stop-color="rgb(1.13678%, 1.092529%, 4.396057%)" offset="0.0546875"/><stop stop-opacity="1" stop-color="rgb(1.217651%, 1.170349%, 4.710388%)" offset="0.0585938"/><stop stop-opacity="1" stop-color="rgb(1.298523%, 1.249695%, 5.024719%)" offset="0.0625"/><stop stop-opacity="1" stop-color="rgb(1.379395%, 1.327515%, 5.337524%)" offset="0.0664062"/><stop stop-opacity="1" stop-color="rgb(1.461792%, 1.405334%, 5.651855%)" offset="0.0703125"/><stop stop-opacity="1" stop-color="rgb(1.542664%, 1.483154%, 5.966187%)" offset="0.0742187"/><stop stop-opacity="1" stop-color="rgb(1.623535%, 1.560974%, 6.280518%)" offset="0.078125"/><stop stop-opacity="1" stop-color="rgb(1.704407%, 1.638794%, 6.594849%)" offset="0.0820312"/><stop stop-opacity="1" stop-color="rgb(1.786804%, 1.71814%, 6.90918%)" offset="0.0859375"/><stop stop-opacity="1" stop-color="rgb(1.867676%, 1.795959%, 7.221985%)" offset="0.0898437"/><stop stop-opacity="1" stop-color="rgb(1.948547%, 1.873779%, 7.536316%)" offset="0.09375"/><stop stop-opacity="1" stop-color="rgb(2.029419%, 1.951599%, 7.850647%)" offset="0.0976562"/><stop stop-opacity="1" stop-color="rgb(2.111816%, 2.030945%, 8.164978%)" offset="0.101562"/><stop stop-opacity="1" stop-color="rgb(2.192688%, 2.108765%, 8.479309%)" offset="0.105469"/><stop stop-opacity="1" stop-color="rgb(2.27356%, 2.186584%, 8.79364%)" offset="0.109375"/><stop stop-opacity="1" stop-color="rgb(2.354431%, 2.264404%, 9.106445%)" offset="0.113281"/><stop stop-opacity="1" stop-color="rgb(2.436829%, 2.342224%, 9.420776%)" offset="0.117188"/><stop stop-opacity="1" stop-color="rgb(2.5177%, 2.420044%, 9.735107%)" offset="0.121094"/><stop stop-opacity="1" stop-color="rgb(2.598572%, 2.49939%, 10.049438%)" offset="0.125"/><stop stop-opacity="1" stop-color="rgb(2.679443%, 2.577209%, 10.36377%)" offset="0.128906"/><stop stop-opacity="1" stop-color="rgb(2.761841%, 2.655029%, 10.678101%)" offset="0.132812"/><stop stop-opacity="1" stop-color="rgb(2.842712%, 2.732849%, 10.990906%)" offset="0.136719"/><stop stop-opacity="1" stop-color="rgb(2.923584%, 2.812195%, 11.305237%)" offset="0.140625"/><stop stop-opacity="1" stop-color="rgb(3.004456%, 2.890015%, 11.619568%)" offset="0.144531"/><stop stop-opacity="1" stop-color="rgb(3.086853%, 2.967834%, 11.933899%)" offset="0.148437"/><stop stop-opacity="1" stop-color="rgb(3.167725%, 3.045654%, 12.246704%)" offset="0.152344"/><stop stop-opacity="1" stop-color="rgb(3.248596%, 3.123474%, 12.561035%)" offset="0.15625"/><stop stop-opacity="1" stop-color="rgb(3.329468%, 3.201294%, 12.875366%)" offset="0.160156"/><stop stop-opacity="1" stop-color="rgb(3.411865%, 3.28064%, 13.189697%)" offset="0.164062"/><stop stop-opacity="1" stop-color="rgb(3.492737%, 3.358459%, 13.504028%)" offset="0.167969"/><stop stop-opacity="1" stop-color="rgb(3.573608%, 3.436279%, 13.818359%)" offset="0.171875"/><stop stop-opacity="1" stop-color="rgb(3.65448%, 3.514099%, 14.131165%)" offset="0.175781"/><stop stop-opacity="1" stop-color="rgb(3.736877%, 3.593445%, 14.445496%)" offset="0.179687"/><stop stop-opacity="1" stop-color="rgb(3.817749%, 3.671265%, 14.759827%)" offset="0.183594"/><stop stop-opacity="1" stop-color="rgb(3.898621%, 3.749084%, 15.074158%)" offset="0.1875"/><stop stop-opacity="1" stop-color="rgb(3.979492%, 3.826904%, 15.388489%)" offset="0.191406"/><stop stop-opacity="1" stop-color="rgb(4.06189%, 3.904724%, 15.70282%)" offset="0.195312"/><stop stop-opacity="1" stop-color="rgb(4.142761%, 3.982544%, 16.015625%)" offset="0.199219"/><stop stop-opacity="1" stop-color="rgb(4.223633%, 4.06189%, 16.329956%)" offset="0.203125"/><stop stop-opacity="1" stop-color="rgb(4.304504%, 4.139709%, 16.644287%)" offset="0.207031"/><stop stop-opacity="1" stop-color="rgb(4.386902%, 4.217529%, 16.958618%)" offset="0.210938"/><stop stop-opacity="1" stop-color="rgb(4.467773%, 4.295349%, 17.272949%)" offset="0.214844"/><stop stop-opacity="1" stop-color="rgb(4.548645%, 4.374695%, 17.58728%)" offset="0.21875"/><stop stop-opacity="1" stop-color="rgb(4.629517%, 4.452515%, 17.900085%)" offset="0.222656"/><stop stop-opacity="1" stop-color="rgb(4.711914%, 4.530334%, 18.214417%)" offset="0.226562"/><stop stop-opacity="1" stop-color="rgb(4.792786%, 4.608154%, 18.528748%)" offset="0.230469"/><stop stop-opacity="1" stop-color="rgb(4.873657%, 4.685974%, 18.843079%)" offset="0.234375"/><stop stop-opacity="1" stop-color="rgb(4.954529%, 4.763794%, 19.15741%)" offset="0.238281"/><stop stop-opacity="1" stop-color="rgb(5.036926%, 4.84314%, 19.471741%)" offset="0.242188"/><stop stop-opacity="1" stop-color="rgb(5.117798%, 4.920959%, 19.784546%)" offset="0.246094"/><stop stop-opacity="1" stop-color="rgb(5.198669%, 4.998779%, 20.098877%)" offset="0.25"/><stop stop-opacity="1" stop-color="rgb(5.279541%, 5.076599%, 20.413208%)" offset="0.253906"/><stop stop-opacity="1" stop-color="rgb(5.361938%, 5.155945%, 20.727539%)" offset="0.257812"/><stop stop-opacity="1" stop-color="rgb(5.44281%, 5.233765%, 21.04187%)" offset="0.261719"/><stop stop-opacity="1" stop-color="rgb(5.523682%, 5.311584%, 21.356201%)" offset="0.265625"/><stop stop-opacity="1" stop-color="rgb(5.604553%, 5.389404%, 21.669006%)" offset="0.269531"/><stop stop-opacity="1" stop-color="rgb(5.686951%, 5.467224%, 21.983337%)" offset="0.273437"/><stop stop-opacity="1" stop-color="rgb(5.767822%, 5.545044%, 22.297668%)" offset="0.277344"/><stop stop-opacity="1" stop-color="rgb(5.848694%, 5.62439%, 22.612%)" offset="0.28125"/><stop stop-opacity="1" stop-color="rgb(5.929565%, 5.702209%, 22.924805%)" offset="0.285156"/><stop stop-opacity="1" stop-color="rgb(6.011963%, 5.780029%, 23.239136%)" offset="0.289062"/><stop stop-opacity="1" stop-color="rgb(6.092834%, 5.857849%, 23.553467%)" offset="0.292969"/><stop stop-opacity="1" stop-color="rgb(6.173706%, 5.937195%, 23.867798%)" offset="0.296875"/><stop stop-opacity="1" stop-color="rgb(6.254578%, 6.015015%, 24.182129%)" offset="0.300781"/><stop stop-opacity="1" stop-color="rgb(6.336975%, 6.092834%, 24.49646%)" offset="0.304687"/><stop stop-opacity="1" stop-color="rgb(6.417847%, 6.170654%, 24.809265%)" offset="0.308594"/><stop stop-opacity="1" stop-color="rgb(6.498718%, 6.248474%, 25.123596%)" offset="0.3125"/><stop stop-opacity="1" stop-color="rgb(6.57959%, 6.326294%, 25.437927%)" offset="0.316406"/><stop stop-opacity="1" stop-color="rgb(6.661987%, 6.40564%, 25.752258%)" offset="0.320312"/><stop stop-opacity="1" stop-color="rgb(6.742859%, 6.483459%, 26.066589%)" offset="0.324219"/><stop stop-opacity="1" stop-color="rgb(6.82373%, 6.561279%, 26.38092%)" offset="0.328125"/><stop stop-opacity="1" stop-color="rgb(6.904602%, 6.639099%, 26.693726%)" offset="0.332031"/><stop stop-opacity="1" stop-color="rgb(6.987%, 6.718445%, 27.008057%)" offset="0.335937"/><stop stop-opacity="1" stop-color="rgb(7.067871%, 6.796265%, 27.322388%)" offset="0.339844"/><stop stop-opacity="1" stop-color="rgb(7.148743%, 6.874084%, 27.636719%)" offset="0.34375"/><stop stop-opacity="1" stop-color="rgb(7.229614%, 6.951904%, 27.95105%)" offset="0.347656"/><stop stop-opacity="1" stop-color="rgb(7.312012%, 7.029724%, 28.265381%)" offset="0.351562"/><stop stop-opacity="1" stop-color="rgb(7.392883%, 7.107544%, 28.578186%)" offset="0.355469"/><stop stop-opacity="1" stop-color="rgb(7.473755%, 7.18689%, 28.892517%)" offset="0.359375"/><stop stop-opacity="1" stop-color="rgb(7.554626%, 7.264709%, 29.206848%)" offset="0.363281"/><stop stop-opacity="1" stop-color="rgb(7.637024%, 7.342529%, 29.521179%)" offset="0.367187"/><stop stop-opacity="1" stop-color="rgb(7.717896%, 7.420349%, 29.83551%)" offset="0.371094"/><stop stop-opacity="1" stop-color="rgb(7.798767%, 7.499695%, 30.149841%)" offset="0.375"/><stop stop-opacity="1" stop-color="rgb(7.879639%, 7.577515%, 30.462646%)" offset="0.378906"/><stop stop-opacity="1" stop-color="rgb(7.962036%, 7.655334%, 30.776978%)" offset="0.382812"/><stop stop-opacity="1" stop-color="rgb(8.042908%, 7.733154%, 31.091309%)" offset="0.386719"/><stop stop-opacity="1" stop-color="rgb(8.123779%, 7.810974%, 31.40564%)" offset="0.390625"/><stop stop-opacity="1" stop-color="rgb(8.204651%, 7.888794%, 31.719971%)" offset="0.394531"/><stop stop-opacity="1" stop-color="rgb(8.287048%, 7.96814%, 32.034302%)" offset="0.398438"/><stop stop-opacity="1" stop-color="rgb(8.36792%, 8.045959%, 32.347107%)" offset="0.402344"/><stop stop-opacity="1" stop-color="rgb(8.448792%, 8.123779%, 32.661438%)" offset="0.40625"/><stop stop-opacity="1" stop-color="rgb(8.529663%, 8.201599%, 32.975769%)" offset="0.410156"/><stop stop-opacity="1" stop-color="rgb(8.612061%, 8.280945%, 33.2901%)" offset="0.414062"/><stop stop-opacity="1" stop-color="rgb(8.692932%, 8.358765%, 33.602905%)" offset="0.417969"/><stop stop-opacity="1" stop-color="rgb(8.773804%, 8.436584%, 33.917236%)" offset="0.421875"/><stop stop-opacity="1" stop-color="rgb(8.854675%, 8.514404%, 34.231567%)" offset="0.425781"/><stop stop-opacity="1" stop-color="rgb(8.937073%, 8.592224%, 34.545898%)" offset="0.429688"/><stop stop-opacity="1" stop-color="rgb(9.017944%, 8.670044%, 34.860229%)" offset="0.433594"/><stop stop-opacity="1" stop-color="rgb(9.098816%, 8.74939%, 35.174561%)" offset="0.4375"/><stop stop-opacity="1" stop-color="rgb(9.179688%, 8.827209%, 35.487366%)" offset="0.441406"/><stop stop-opacity="1" stop-color="rgb(9.262085%, 8.905029%, 35.801697%)" offset="0.445312"/><stop stop-opacity="1" stop-color="rgb(9.342957%, 8.982849%, 36.116028%)" offset="0.449219"/><stop stop-opacity="1" stop-color="rgb(9.423828%, 9.062195%, 36.430359%)" offset="0.453125"/><stop stop-opacity="1" stop-color="rgb(9.5047%, 9.140015%, 36.74469%)" offset="0.457031"/><stop stop-opacity="1" stop-color="rgb(9.587097%, 9.217834%, 37.059021%)" offset="0.460938"/><stop stop-opacity="1" stop-color="rgb(9.667969%, 9.295654%, 37.371826%)" offset="0.464844"/><stop stop-opacity="1" stop-color="rgb(9.74884%, 9.373474%, 37.686157%)" offset="0.46875"/><stop stop-opacity="1" stop-color="rgb(9.829712%, 9.451294%, 38.000488%)" offset="0.472656"/><stop stop-opacity="1" stop-color="rgb(9.912109%, 9.53064%, 38.314819%)" offset="0.476562"/><stop stop-opacity="1" stop-color="rgb(9.992981%, 9.608459%, 38.62915%)" offset="0.480469"/><stop stop-opacity="1" stop-color="rgb(10.073853%, 9.686279%, 38.943481%)" offset="0.484375"/><stop stop-opacity="1" stop-color="rgb(10.154724%, 9.764099%, 39.256287%)" offset="0.488281"/><stop stop-opacity="1" stop-color="rgb(10.237122%, 9.843445%, 39.570618%)" offset="0.492188"/><stop stop-opacity="1" stop-color="rgb(10.317993%, 9.921265%, 39.884949%)" offset="0.496094"/><stop stop-opacity="1" stop-color="rgb(10.398865%, 9.999084%, 40.19928%)" offset="0.5"/><stop stop-opacity="1" stop-color="rgb(10.479736%, 10.076904%, 40.513611%)" offset="0.503906"/><stop stop-opacity="1" stop-color="rgb(10.562134%, 10.154724%, 40.827942%)" offset="0.507812"/><stop stop-opacity="1" stop-color="rgb(10.643005%, 10.232544%, 41.140747%)" offset="0.511719"/><stop stop-opacity="1" stop-color="rgb(10.723877%, 10.31189%, 41.455078%)" offset="0.515625"/><stop stop-opacity="1" stop-color="rgb(10.804749%, 10.389709%, 41.769409%)" offset="0.519531"/><stop stop-opacity="1" stop-color="rgb(10.887146%, 10.467529%, 42.08374%)" offset="0.523437"/><stop stop-opacity="1" stop-color="rgb(10.968018%, 10.545349%, 42.398071%)" offset="0.527344"/><stop stop-opacity="1" stop-color="rgb(11.048889%, 10.624695%, 42.712402%)" offset="0.53125"/><stop stop-opacity="1" stop-color="rgb(11.129761%, 10.702515%, 43.025208%)" offset="0.535156"/><stop stop-opacity="1" stop-color="rgb(11.212158%, 10.780334%, 43.339539%)" offset="0.539062"/><stop stop-opacity="1" stop-color="rgb(11.29303%, 10.858154%, 43.65387%)" offset="0.542969"/><stop stop-opacity="1" stop-color="rgb(11.373901%, 10.935974%, 43.968201%)" offset="0.546875"/><stop stop-opacity="1" stop-color="rgb(11.454773%, 11.013794%, 44.282532%)" offset="0.550781"/><stop stop-opacity="1" stop-color="rgb(11.53717%, 11.09314%, 44.596863%)" offset="0.554687"/><stop stop-opacity="1" stop-color="rgb(11.618042%, 11.170959%, 44.909668%)" offset="0.558594"/><stop stop-opacity="1" stop-color="rgb(11.698914%, 11.248779%, 45.223999%)" offset="0.5625"/><stop stop-opacity="1" stop-color="rgb(11.779785%, 11.326599%, 45.53833%)" offset="0.566406"/><stop stop-opacity="1" stop-color="rgb(11.862183%, 11.405945%, 45.852661%)" offset="0.570312"/><stop stop-opacity="1" stop-color="rgb(11.943054%, 11.483765%, 46.165466%)" offset="0.574219"/><stop stop-opacity="1" stop-color="rgb(12.023926%, 11.561584%, 46.479797%)" offset="0.578125"/><stop stop-opacity="1" stop-color="rgb(12.104797%, 11.639404%, 46.794128%)" offset="0.582031"/><stop stop-opacity="1" stop-color="rgb(12.187195%, 11.717224%, 47.108459%)" offset="0.585937"/><stop stop-opacity="1" stop-color="rgb(12.268066%, 11.795044%, 47.422791%)" offset="0.589844"/><stop stop-opacity="1" stop-color="rgb(12.348938%, 11.87439%, 47.737122%)" offset="0.59375"/><stop stop-opacity="1" stop-color="rgb(12.42981%, 11.952209%, 48.049927%)" offset="0.597656"/><stop stop-opacity="1" stop-color="rgb(12.512207%, 12.030029%, 48.364258%)" offset="0.601562"/><stop stop-opacity="1" stop-color="rgb(12.593079%, 12.107849%, 48.678589%)" offset="0.605469"/><stop stop-opacity="1" stop-color="rgb(12.67395%, 12.187195%, 48.99292%)" offset="0.609375"/><stop stop-opacity="1" stop-color="rgb(12.754822%, 12.265015%, 49.307251%)" offset="0.613281"/><stop stop-opacity="1" stop-color="rgb(12.837219%, 12.342834%, 49.621582%)" offset="0.617187"/><stop stop-opacity="1" stop-color="rgb(12.918091%, 12.420654%, 49.934387%)" offset="0.621094"/><stop stop-opacity="1" stop-color="rgb(12.998962%, 12.498474%, 50.248718%)" offset="0.625"/><stop stop-opacity="1" stop-color="rgb(13.079834%, 12.576294%, 50.563049%)" offset="0.628906"/><stop stop-opacity="1" stop-color="rgb(13.162231%, 12.65564%, 50.87738%)" offset="0.632812"/><stop stop-opacity="1" stop-color="rgb(13.243103%, 12.733459%, 51.191711%)" offset="0.636719"/><stop stop-opacity="1" stop-color="rgb(13.323975%, 12.811279%, 51.506042%)" offset="0.640625"/><stop stop-opacity="1" stop-color="rgb(13.404846%, 12.889099%, 51.818848%)" offset="0.644531"/><stop stop-opacity="1" stop-color="rgb(13.487244%, 12.968445%, 52.133179%)" offset="0.648437"/><stop stop-opacity="1" stop-color="rgb(13.568115%, 13.046265%, 52.44751%)" offset="0.652344"/><stop stop-opacity="1" stop-color="rgb(13.648987%, 13.124084%, 52.761841%)" offset="0.65625"/><stop stop-opacity="1" stop-color="rgb(13.729858%, 13.201904%, 53.076172%)" offset="0.660156"/><stop stop-opacity="1" stop-color="rgb(13.812256%, 13.279724%, 53.390503%)" offset="0.664062"/><stop stop-opacity="1" stop-color="rgb(13.893127%, 13.357544%, 53.703308%)" offset="0.667969"/><stop stop-opacity="1" stop-color="rgb(13.973999%, 13.43689%, 54.017639%)" offset="0.671875"/><stop stop-opacity="1" stop-color="rgb(14.054871%, 13.514709%, 54.33197%)" offset="0.675781"/><stop stop-opacity="1" stop-color="rgb(14.137268%, 13.592529%, 54.646301%)" offset="0.679687"/><stop stop-opacity="1" stop-color="rgb(14.21814%, 13.670349%, 54.960632%)" offset="0.683594"/><stop stop-opacity="1" stop-color="rgb(14.299011%, 13.749695%, 55.274963%)" offset="0.6875"/><stop stop-opacity="1" stop-color="rgb(14.379883%, 13.827515%, 55.587769%)" offset="0.691406"/><stop stop-opacity="1" stop-color="rgb(14.46228%, 13.905334%, 55.9021%)" offset="0.695312"/><stop stop-opacity="1" stop-color="rgb(14.543152%, 13.983154%, 56.216431%)" offset="0.699219"/><stop stop-opacity="1" stop-color="rgb(14.624023%, 14.060974%, 56.530762%)" offset="0.703125"/><stop stop-opacity="1" stop-color="rgb(14.704895%, 14.138794%, 56.843567%)" offset="0.707031"/><stop stop-opacity="1" stop-color="rgb(14.787292%, 14.21814%, 57.157898%)" offset="0.710937"/><stop stop-opacity="1" stop-color="rgb(14.868164%, 14.295959%, 57.472229%)" offset="0.714844"/><stop stop-opacity="1" stop-color="rgb(14.949036%, 14.373779%, 57.78656%)" offset="0.71875"/><stop stop-opacity="1" stop-color="rgb(15.029907%, 14.451599%, 58.100891%)" offset="0.722656"/><stop stop-opacity="1" stop-color="rgb(15.112305%, 14.530945%, 58.415222%)" offset="0.726562"/><stop stop-opacity="1" stop-color="rgb(15.193176%, 14.608765%, 58.728027%)" offset="0.730469"/><stop stop-opacity="1" stop-color="rgb(15.274048%, 14.686584%, 59.042358%)" offset="0.734375"/><stop stop-opacity="1" stop-color="rgb(15.354919%, 14.764404%, 59.356689%)" offset="0.738281"/><stop stop-opacity="1" stop-color="rgb(15.437317%, 14.842224%, 59.671021%)" offset="0.742187"/><stop stop-opacity="1" stop-color="rgb(15.518188%, 14.920044%, 59.985352%)" offset="0.746094"/><stop stop-opacity="1" stop-color="rgb(15.59906%, 14.99939%, 60.299683%)" offset="0.75"/><stop stop-opacity="1" stop-color="rgb(15.679932%, 15.077209%, 60.612488%)" offset="0.753906"/><stop stop-opacity="1" stop-color="rgb(15.762329%, 15.155029%, 60.926819%)" offset="0.757812"/><stop stop-opacity="1" stop-color="rgb(15.843201%, 15.232849%, 61.24115%)" offset="0.761719"/><stop stop-opacity="1" stop-color="rgb(15.924072%, 15.312195%, 61.555481%)" offset="0.765625"/><stop stop-opacity="1" stop-color="rgb(16.004944%, 15.390015%, 61.869812%)" offset="0.769531"/><stop stop-opacity="1" stop-color="rgb(16.087341%, 15.467834%, 62.184143%)" offset="0.773438"/><stop stop-opacity="1" stop-color="rgb(16.168213%, 15.545654%, 62.496948%)" offset="0.777344"/><stop stop-opacity="1" stop-color="rgb(16.249084%, 15.623474%, 62.811279%)" offset="0.78125"/><stop stop-opacity="1" stop-color="rgb(16.329956%, 15.701294%, 63.12561%)" offset="0.785156"/><stop stop-opacity="1" stop-color="rgb(16.412354%, 15.78064%, 63.439941%)" offset="0.789062"/><stop stop-opacity="1" stop-color="rgb(16.493225%, 15.858459%, 63.754272%)" offset="0.792969"/><stop stop-opacity="1" stop-color="rgb(16.574097%, 15.936279%, 64.068604%)" offset="0.796875"/><stop stop-opacity="1" stop-color="rgb(16.654968%, 16.014099%, 64.381409%)" offset="0.800781"/><stop stop-opacity="1" stop-color="rgb(16.737366%, 16.093445%, 64.69574%)" offset="0.804688"/><stop stop-opacity="1" stop-color="rgb(16.818237%, 16.171265%, 65.010071%)" offset="0.808594"/><stop stop-opacity="1" stop-color="rgb(16.899109%, 16.249084%, 65.324402%)" offset="0.8125"/><stop stop-opacity="1" stop-color="rgb(16.97998%, 16.326904%, 65.638733%)" offset="0.816406"/><stop stop-opacity="1" stop-color="rgb(17.062378%, 16.404724%, 65.953064%)" offset="0.820312"/><stop stop-opacity="1" stop-color="rgb(17.14325%, 16.482544%, 66.265869%)" offset="0.824219"/><stop stop-opacity="1" stop-color="rgb(17.224121%, 16.56189%, 66.5802%)" offset="0.828125"/><stop stop-opacity="1" stop-color="rgb(17.304993%, 16.639709%, 66.894531%)" offset="0.832031"/><stop stop-opacity="1" stop-color="rgb(17.38739%, 16.717529%, 67.208862%)" offset="0.835938"/><stop stop-opacity="1" stop-color="rgb(17.468262%, 16.795349%, 67.521667%)" offset="0.839844"/><stop stop-opacity="1" stop-color="rgb(17.549133%, 16.874695%, 67.835999%)" offset="0.84375"/><stop stop-opacity="1" stop-color="rgb(17.630005%, 16.952515%, 68.15033%)" offset="0.847656"/><stop stop-opacity="1" stop-color="rgb(17.712402%, 17.030334%, 68.464661%)" offset="0.851562"/><stop stop-opacity="1" stop-color="rgb(17.793274%, 17.108154%, 68.778992%)" offset="0.855469"/><stop stop-opacity="1" stop-color="rgb(17.874146%, 17.185974%, 69.093323%)" offset="0.859375"/><stop stop-opacity="1" stop-color="rgb(17.955017%, 17.263794%, 69.406128%)" offset="0.863281"/><stop stop-opacity="1" stop-color="rgb(18.037415%, 17.34314%, 69.720459%)" offset="0.867188"/><stop stop-opacity="1" stop-color="rgb(18.118286%, 17.420959%, 70.03479%)" offset="0.871094"/><stop stop-opacity="1" stop-color="rgb(18.199158%, 17.498779%, 70.349121%)" offset="0.875"/><stop stop-opacity="1" stop-color="rgb(18.280029%, 17.576599%, 70.663452%)" offset="0.878906"/><stop stop-opacity="1" stop-color="rgb(18.362427%, 17.655945%, 70.977783%)" offset="0.882812"/><stop stop-opacity="1" stop-color="rgb(18.443298%, 17.733765%, 71.290588%)" offset="0.886719"/><stop stop-opacity="1" stop-color="rgb(18.52417%, 17.811584%, 71.604919%)" offset="0.890625"/><stop stop-opacity="1" stop-color="rgb(18.605042%, 17.889404%, 71.91925%)" offset="0.894531"/><stop stop-opacity="1" stop-color="rgb(18.687439%, 17.967224%, 72.233582%)" offset="0.898438"/><stop stop-opacity="1" stop-color="rgb(18.768311%, 18.045044%, 72.547913%)" offset="0.902344"/><stop stop-opacity="1" stop-color="rgb(18.849182%, 18.12439%, 72.862244%)" offset="0.90625"/><stop stop-opacity="1" stop-color="rgb(18.930054%, 18.202209%, 73.175049%)" offset="0.910156"/><stop stop-opacity="1" stop-color="rgb(19.012451%, 18.280029%, 73.48938%)" offset="0.914062"/><stop stop-opacity="1" stop-color="rgb(19.093323%, 18.357849%, 73.803711%)" offset="0.917969"/><stop stop-opacity="1" stop-color="rgb(19.174194%, 18.437195%, 74.118042%)" offset="0.921875"/><stop stop-opacity="1" stop-color="rgb(19.255066%, 18.515015%, 74.432373%)" offset="0.925781"/><stop stop-opacity="1" stop-color="rgb(19.337463%, 18.592834%, 74.746704%)" offset="0.929688"/><stop stop-opacity="1" stop-color="rgb(19.418335%, 18.670654%, 75.059509%)" offset="0.933594"/><stop stop-opacity="1" stop-color="rgb(19.499207%, 18.748474%, 75.37384%)" offset="0.9375"/><stop stop-opacity="1" stop-color="rgb(19.580078%, 18.826294%, 75.688171%)" offset="0.941406"/><stop stop-opacity="1" stop-color="rgb(19.662476%, 18.90564%, 76.002502%)" offset="0.945312"/><stop stop-opacity="1" stop-color="rgb(19.743347%, 18.983459%, 76.316833%)" offset="0.949219"/><stop stop-opacity="1" stop-color="rgb(19.824219%, 19.061279%, 76.631165%)" offset="0.953125"/><stop stop-opacity="1" stop-color="rgb(19.90509%, 19.139099%, 76.94397%)" offset="0.957031"/><stop stop-opacity="1" stop-color="rgb(19.987488%, 19.218445%, 77.258301%)" offset="0.960938"/><stop stop-opacity="1" stop-color="rgb(20.068359%, 19.296265%, 77.572632%)" offset="0.964844"/><stop stop-opacity="1" stop-color="rgb(20.149231%, 19.374084%, 77.886963%)" offset="0.96875"/><stop stop-opacity="1" stop-color="rgb(20.230103%, 19.451904%, 78.199768%)" offset="0.972656"/><stop stop-opacity="1" stop-color="rgb(20.310974%, 19.529724%, 78.514099%)" offset="0.976562"/><stop stop-opacity="1" stop-color="rgb(20.391846%, 19.607544%, 78.82843%)" offset="0.980469"/><stop stop-opacity="1" stop-color="rgb(20.474243%, 19.68689%, 79.142761%)" offset="0.984375"/><stop stop-opacity="1" stop-color="rgb(20.555115%, 19.764709%, 79.457092%)" offset="0.988281"/><stop stop-opacity="1" stop-color="rgb(20.635986%, 19.842529%, 79.771423%)" offset="0.992188"/><stop stop-opacity="1" stop-color="rgb(20.716858%, 19.920349%, 80.084229%)" offset="0.996094"/><stop stop-opacity="1" stop-color="rgb(20.799255%, 19.999695%, 80.39856%)" offset="1"/></linearGradient><clipPath id="c0807ba5a4"><path d="M 22 168 L 122.917969 168 L 122.917969 243 L 22 243 Z M 22 168 " clip-rule="nonzero"/></clipPath><clipPath id="fb0507ee02"><path d="M 30 130 L 122.917969 130 L 122.917969 216 L 30 216 Z M 30 130 " clip-rule="nonzero"/></clipPath><clipPath id="07609eaba8"><path d="M 252.695312 133.707031 L 353.195312 133.707031 L 353.195312 244.707031 L 252.695312 244.707031 Z M 252.695312 133.707031 " clip-rule="nonzero"/></clipPath><clipPath id="e785949405"><path d="M 112.488281 163.257812 L 262.488281 163.257812 L 262.488281 245 L 112.488281 245 Z M 112.488281 163.257812 " clip-rule="nonzero"/></clipPath></defs><rect x="-37.5" fill="url(#b111f17214)" width="450" y="-37.499999" height="449.999989"/><g clip-path="url(#c0807ba5a4)"><path fill="#ffffff" d="M 78.402344 242.535156 C 83.636719 242.535156 88.378906 242.074219 92.65625 241.191406 C 96.921875 240.285156 100.839844 238.992188 104.386719 237.3125 C 107.9375 235.621094 111.222656 233.582031 114.285156 231.191406 C 117.3125 228.8125 120.242188 226.117188 123.011719 223.105469 L 107.78125 207.730469 C 68.703125 244.972656 23.410156 218.214844 25.304688 168.5625 C 21.667969 179.960938 21.710938 193.015625 25.332031 204.410156 C 27.148438 210.003906 29.710938 215.132812 33.027344 219.765625 C 36.363281 224.4375 40.332031 228.445312 44.941406 231.839844 C 49.550781 235.234375 54.679688 237.847656 60.300781 239.714844 C 65.945312 241.578125 71.980469 242.511719 78.402344 242.535156 " fill-opacity="1" fill-rule="nonzero"/></g><g clip-path="url(#fb0507ee02)"><path fill="#ffffff" d="M 62.328125 215.488281 C 60.144531 214.054688 58.175781 212.34375 56.414062 210.371094 C 53.617188 207.234375 51.464844 203.605469 49.941406 199.484375 C 46.851562 191.167969 46.820312 181.113281 49.996094 172.808594 C 51.519531 168.71875 53.722656 165.140625 56.519531 162.035156 C 59.34375 158.925781 62.683594 156.519531 66.519531 154.757812 C 70.347656 152.996094 74.570312 152.113281 79.1875 152.089844 C 82.785156 152.089844 86.179688 152.578125 89.359375 153.5625 C 92.546875 154.550781 95.582031 155.972656 98.480469 157.785156 C 101.382812 159.625 104.203125 161.800781 107 164.367188 L 122.234375 146.804688 C 118.886719 143.464844 115.210938 140.539062 111.171875 138.019531 C 107.132812 135.511719 102.523438 133.570312 97.339844 132.171875 C 92.136719 130.742188 86.148438 130.042969 79.339844 130.019531 C 49.460938 130.132812 23.617188 154.492188 32.765625 186.59375 C 36.792969 200.738281 46.90625 213.164062 62.328125 215.488281 Z M 62.328125 215.488281 " fill-opacity="1" fill-rule="nonzero"/></g><g clip-path="url(#07609eaba8)"><path fill="#ffffff" d="M 314.492188 201.359375 L 315.234375 201.351562 C 320.96875 201.285156 327.3125 206.050781 327.40625 210.839844 C 327.496094 215.574219 321.390625 220.332031 317.832031 220.371094 C 317.832031 220.371094 310.40625 220.476562 308.5625 220.570312 C 308.179688 220.589844 307.796875 220.601562 307.417969 220.605469 L 286.648438 220.832031 C 283.6875 220.863281 281.253906 223.191406 281.164062 226.050781 C 281.070312 229 283.597656 231.390625 286.636719 231.359375 L 300.464844 231.21875 C 301.320312 231.207031 302 231.871094 301.992188 232.699219 C 301.992188 232.710938 301.992188 232.722656 301.992188 232.738281 C 301.988281 233.632812 301.230469 234.367188 300.308594 234.375 L 294.019531 234.441406 C 291.0625 234.472656 288.628906 236.796875 288.539062 239.660156 C 288.441406 242.609375 290.972656 245 294.011719 244.96875 L 320.855469 244.691406 C 321.273438 244.6875 321.679688 244.636719 322.070312 244.546875 C 330.917969 243.855469 338.445312 240.527344 343.972656 234.832031 C 349.871094 228.75 353.050781 220.445312 353.167969 210.820312 L 353.171875 210.65625 C 353.289062 201.011719 350.292969 192.695312 344.503906 186.609375 C 338.425781 180.21875 329.808594 176.898438 319.589844 177.003906 L 315.148438 177.046875 C 314.769531 177.050781 314.390625 177.074219 314.019531 177.109375 L 289.847656 177.332031 C 288.757812 177.304688 288.003906 177.289062 288.003906 177.289062 C 284.445312 177.21875 278.382812 172.40625 278.515625 167.671875 C 278.652344 162.882812 285.035156 158.175781 290.769531 158.292969 L 295.714844 158.386719 C 295.910156 158.390625 296.105469 158.390625 296.296875 158.382812 C 296.753906 158.371094 297.207031 158.363281 297.667969 158.371094 L 312.753906 158.644531 L 318.039062 158.746094 L 325.410156 158.890625 C 328.449219 158.949219 331 156.582031 330.933594 153.628906 C 330.867188 150.769531 328.457031 148.417969 325.496094 148.363281 L 318.003906 148.21875 L 315.472656 148.167969 C 314.613281 148.152344 313.914062 147.460938 313.910156 146.628906 L 313.910156 146.585938 C 313.910156 145.699219 314.648438 144.996094 315.5625 145.011719 L 320.75 145.113281 C 323.789062 145.171875 326.339844 142.804688 326.273438 139.855469 C 326.207031 136.992188 323.796875 134.644531 320.835938 134.585938 L 292.203125 134.066406 C 291.832031 134.027344 291.457031 134 291.078125 133.992188 L 286.636719 133.90625 C 276.417969 133.707031 267.773438 136.953125 261.632812 143.289062 C 255.789062 149.320312 252.71875 157.609375 252.75 167.253906 L 252.75 167.421875 C 252.785156 177.046875 255.890625 185.378906 261.730469 191.511719 C 265.769531 195.75 270.914062 198.707031 276.878906 200.277344 M 272.894531 220.972656 L 268.820312 221.015625 C 265.828125 221.046875 263.371094 223.429688 263.335938 226.335938 C 263.300781 229.242188 265.695312 231.574219 268.691406 231.542969 L 272.761719 231.503906 C 275.757812 231.472656 278.214844 229.089844 278.25 226.183594 C 278.285156 223.273438 275.886719 220.941406 272.894531 220.972656 Z M 328.464844 140 C 328.453125 137.089844 330.875 134.78125 333.867188 134.839844 L 337.9375 134.917969 C 340.929688 134.972656 343.367188 137.378906 343.375 140.285156 C 343.382812 143.195312 340.964844 145.503906 337.972656 145.445312 L 333.902344 145.367188 C 330.910156 145.308594 328.472656 142.90625 328.464844 140 " fill-opacity="1" fill-rule="nonzero"/></g><g clip-path="url(#e785949405)"><path fill="#ff0505" d="M 112.5 163.25 L 138.527344 222.777344 L 145.46875 205.394531 L 127.039062 163.25 Z M 247.945312 163.25 L 220.007812 227.464844 L 194.195312 163.25 L 180.960938 163.25 L 148.171875 244.828125 L 148.242188 244.996094 L 162.460938 244.996094 L 187.578125 182.511719 L 212.695312 244.996094 L 226.90625 244.996094 L 262.472656 163.25 Z M 247.945312 163.25 " fill-opacity="1" fill-rule="nonzero"/></g><g fill="#ffffff" fill-opacity="1"><g transform="translate(79.906231, 274.851836)"><g><path d="M 11.1875 -3.328125 C 10.78125 -2.285156 10.117188 -1.445312 9.203125 -0.8125 C 8.273438 -0.164062 7.253906 0.15625 6.140625 0.15625 C 4.640625 0.15625 3.351562 -0.394531 2.28125 -1.5 C 1.238281 -2.59375 0.71875 -3.898438 0.71875 -5.421875 C 0.71875 -6.179688 0.859375 -6.898438 1.140625 -7.578125 C 1.410156 -8.253906 1.789062 -8.847656 2.28125 -9.359375 C 3.351562 -10.472656 4.640625 -11.03125 6.140625 -11.03125 C 7.253906 -11.03125 8.269531 -10.710938 9.1875 -10.078125 C 10.101562 -9.441406 10.765625 -8.601562 11.171875 -7.5625 L 9.9375 -7.5625 C 9.351562 -8.644531 8.476562 -9.363281 7.3125 -9.71875 C 6.925781 -9.820312 6.484375 -9.875 5.984375 -9.875 C 5.484375 -9.875 4.972656 -9.753906 4.453125 -9.515625 C 3.921875 -9.273438 3.46875 -8.953125 3.09375 -8.546875 C 2.257812 -7.679688 1.84375 -6.640625 1.84375 -5.421875 C 1.84375 -4.210938 2.257812 -3.175781 3.09375 -2.3125 C 3.9375 -1.425781 4.953125 -0.984375 6.140625 -0.984375 C 6.953125 -0.984375 7.703125 -1.195312 8.390625 -1.625 C 9.054688 -2.050781 9.578125 -2.617188 9.953125 -3.328125 Z M 11.1875 -3.328125 "/></g></g></g><g fill="#ffffff" fill-opacity="1"><g transform="translate(95.311422, 274.851836)"><g><path d="M 2.09375 4 L 0.734375 4 L 3.109375 -1.15625 L 0.15625 -7.046875 L 1.4375 -7.046875 L 3.703125 -2.3125 L 5.71875 -7.046875 L 6.953125 -7.046875 Z M 2.09375 4 "/></g></g></g><g fill="#ffffff" fill-opacity="1"><g transform="translate(105.853779, 274.851836)"><g><path d="M 2.3125 0 L 1.203125 0 L 1.203125 -12 L 2.3125 -12 L 2.3125 -5.84375 C 2.382812 -5.925781 2.457031 -6.003906 2.53125 -6.078125 C 3.1875 -6.828125 4 -7.203125 4.96875 -7.203125 C 5.945312 -7.203125 6.769531 -6.828125 7.4375 -6.078125 C 8.082031 -5.347656 8.40625 -4.492188 8.40625 -3.515625 C 8.40625 -2.535156 8.082031 -1.679688 7.4375 -0.953125 C 6.769531 -0.210938 5.945312 0.15625 4.96875 0.15625 C 4 0.15625 3.1875 -0.210938 2.53125 -0.953125 C 2.457031 -1.035156 2.382812 -1.117188 2.3125 -1.203125 Z M 7.28125 -3.515625 C 7.28125 -4.203125 7.046875 -4.800781 6.578125 -5.3125 C 6.097656 -5.820312 5.503906 -6.078125 4.796875 -6.078125 C 4.097656 -6.078125 3.515625 -5.820312 3.046875 -5.3125 C 2.554688 -4.800781 2.3125 -4.203125 2.3125 -3.515625 C 2.3125 -2.835938 2.554688 -2.242188 3.046875 -1.734375 C 3.515625 -1.210938 4.097656 -0.953125 4.796875 -0.953125 C 5.503906 -0.953125 6.097656 -1.210938 6.578125 -1.734375 C 7.046875 -2.242188 7.28125 -2.835938 7.28125 -3.515625 Z M 7.28125 -3.515625 "/></g></g></g><g fill="#ffffff" fill-opacity="1"><g transform="translate(118.715579, 274.851836)"><g><path d="M 8.078125 -3.6875 L 8.078125 -3.09375 L 1.890625 -3.09375 C 1.992188 -2.476562 2.285156 -1.976562 2.765625 -1.59375 C 3.253906 -1.207031 3.800781 -1.015625 4.40625 -1.015625 C 4.8125 -1.015625 5.195312 -1.109375 5.5625 -1.296875 C 5.925781 -1.472656 6.234375 -1.726562 6.484375 -2.0625 L 7.765625 -2.0625 C 7.460938 -1.394531 7.015625 -0.867188 6.421875 -0.484375 C 5.804688 -0.0859375 5.191406 0.109375 4.578125 0.109375 C 3.941406 0.109375 3.40625 0.015625 2.96875 -0.171875 C 2.519531 -0.367188 2.132812 -0.628906 1.8125 -0.953125 C 1.082031 -1.660156 0.71875 -2.523438 0.71875 -3.546875 C 0.71875 -4.566406 1.082031 -5.4375 1.8125 -6.15625 C 2.519531 -6.875 3.382812 -7.234375 4.40625 -7.234375 C 5.382812 -7.234375 6.238281 -6.882812 6.96875 -6.1875 C 7.707031 -5.488281 8.078125 -4.65625 8.078125 -3.6875 Z M 6.890625 -4.046875 C 6.765625 -4.640625 6.46875 -5.132812 6 -5.53125 C 5.53125 -5.914062 5 -6.109375 4.40625 -6.109375 C 3.488281 -6.109375 2.765625 -5.695312 2.234375 -4.875 C 2.078125 -4.625 1.96875 -4.347656 1.90625 -4.046875 Z M 6.890625 -4.046875 "/></g></g></g><g fill="#ffffff" fill-opacity="1"><g transform="translate(131.177476, 274.851836)"><g><path d="M 4.8125 -5.578125 C 4.5625 -5.816406 4.285156 -5.9375 3.984375 -5.9375 C 3.691406 -5.9375 3.445312 -5.859375 3.25 -5.703125 C 3.03125 -5.523438 2.851562 -5.320312 2.71875 -5.09375 C 2.445312 -4.625 2.3125 -4.097656 2.3125 -3.515625 L 2.3125 0 L 1.203125 0 L 1.203125 -7.046875 L 2.3125 -7.046875 L 2.3125 -5.578125 L 2.375 -5.875 C 2.738281 -6.75 3.316406 -7.1875 4.109375 -7.1875 C 4.359375 -7.1875 4.59375 -7.140625 4.8125 -7.046875 Z M 4.8125 -5.578125 "/></g></g></g><g fill="#ffffff" fill-opacity="1"><g transform="translate(139.896271, 274.851836)"><g/></g></g><g fill="#ffffff" fill-opacity="1"><g transform="translate(147.959228, 274.851836)"><g><path d="M 9.84375 0.875 L 6.265625 -8.59375 L 2.703125 0.875 L 0.15625 -10.875 L 1.3125 -10.875 L 2.984375 -2.96875 L 6.265625 -11.515625 L 9.53125 -2.96875 L 11.234375 -10.875 L 12.375 -10.875 Z M 9.84375 0.875 "/></g></g></g><g fill="#ffffff" fill-opacity="1"><g transform="translate(164.228205, 274.851836)"><g><path d="M 6.796875 -3.515625 C 6.796875 -4.203125 6.5625 -4.800781 6.09375 -5.3125 C 5.613281 -5.820312 5.019531 -6.078125 4.3125 -6.078125 C 3.613281 -6.078125 3.03125 -5.820312 2.5625 -5.3125 C 2.082031 -4.800781 1.84375 -4.203125 1.84375 -3.515625 C 1.84375 -2.835938 2.082031 -2.242188 2.5625 -1.734375 C 3.03125 -1.210938 3.613281 -0.953125 4.3125 -0.953125 C 5.019531 -0.953125 5.613281 -1.210938 6.09375 -1.734375 C 6.5625 -2.242188 6.796875 -2.835938 6.796875 -3.515625 Z M 7.921875 0 L 6.796875 0 L 6.796875 -1.203125 C 6.734375 -1.117188 6.671875 -1.035156 6.609375 -0.953125 C 5.929688 -0.210938 5.109375 0.15625 4.140625 0.15625 C 3.171875 0.15625 2.359375 -0.210938 1.703125 -0.953125 C 1.046875 -1.679688 0.71875 -2.535156 0.71875 -3.515625 C 0.71875 -4.492188 1.046875 -5.347656 1.703125 -6.078125 C 2.359375 -6.828125 3.171875 -7.203125 4.140625 -7.203125 C 5.109375 -7.203125 5.929688 -6.828125 6.609375 -6.078125 C 6.671875 -6.003906 6.734375 -5.925781 6.796875 -5.84375 L 6.796875 -7.046875 L 7.921875 -7.046875 Z M 7.921875 0 "/></g></g></g><g fill="#ffffff" fill-opacity="1"><g transform="translate(177.090002, 274.851836)"><g><path d="M 0.3125 -6 L 0.3125 -7.046875 L 2.078125 -7.046875 L 2.078125 -9.78125 L 3.203125 -9.78125 L 3.203125 -7.046875 L 4.9375 -7.046875 L 4.9375 -6 L 3.203125 -6 L 3.203125 0 L 2.078125 0 L 2.078125 -6 Z M 0.3125 -6 "/></g></g></g><g fill="#ffffff" fill-opacity="1"><g transform="translate(186.09673, 274.851836)"><g><path d="M 0.3125 -6 L 0.3125 -7.046875 L 2.078125 -7.046875 L 2.078125 -9.78125 L 3.203125 -9.78125 L 3.203125 -7.046875 L 4.9375 -7.046875 L 4.9375 -6 L 3.203125 -6 L 3.203125 0 L 2.078125 0 L 2.078125 -6 Z M 0.3125 -6 "/></g></g></g><g fill="#ffffff" fill-opacity="1"><g transform="translate(195.103459, 274.851836)"><g/></g></g><g fill="#ffffff" fill-opacity="1"><g transform="translate(203.166416, 274.851836)"><g><path d="M 4.21875 -5.140625 C 2 -5.648438 0.890625 -6.597656 0.890625 -7.984375 C 0.890625 -9.003906 1.25 -9.769531 1.96875 -10.28125 C 2.6875 -10.789062 3.523438 -11.046875 4.484375 -11.046875 C 6.597656 -11.046875 7.851562 -10.253906 8.25 -8.671875 L 7.046875 -8.671875 C 6.828125 -9.609375 5.972656 -10.078125 4.484375 -10.078125 C 3.429688 -10.078125 2.695312 -9.769531 2.28125 -9.15625 C 2.125 -8.914062 2.046875 -8.617188 2.046875 -8.265625 C 2.046875 -7.597656 2.410156 -7.082031 3.140625 -6.71875 C 3.472656 -6.539062 4.195312 -6.304688 5.3125 -6.015625 C 6.414062 -5.722656 7.222656 -5.40625 7.734375 -5.0625 C 8.421875 -4.5625 8.765625 -3.867188 8.765625 -2.984375 C 8.765625 -1.890625 8.332031 -1.0625 7.46875 -0.5 C 6.75 -0.03125 5.851562 0.203125 4.78125 0.203125 C 2.375 0.203125 0.976562 -0.710938 0.59375 -2.546875 L 1.921875 -2.546875 C 2.117188 -1.390625 3.070312 -0.8125 4.78125 -0.8125 C 6 -0.8125 6.847656 -1.148438 7.328125 -1.828125 C 7.515625 -2.085938 7.609375 -2.445312 7.609375 -2.90625 C 7.609375 -3.351562 7.4375 -3.722656 7.09375 -4.015625 C 6.59375 -4.421875 5.632812 -4.796875 4.21875 -5.140625 Z M 4.21875 -5.140625 "/></g></g></g><g fill="#ffffff" fill-opacity="1"><g transform="translate(216.092196, 274.851836)"><g><path d="M 6.953125 -3.546875 C 6.953125 -4.253906 6.703125 -4.859375 6.203125 -5.359375 C 5.703125 -5.859375 5.101562 -6.109375 4.40625 -6.109375 C 3.695312 -6.109375 3.09375 -5.859375 2.59375 -5.359375 C 2.09375 -4.859375 1.84375 -4.253906 1.84375 -3.546875 C 1.84375 -2.859375 2.09375 -2.265625 2.59375 -1.765625 C 3.09375 -1.265625 3.695312 -1.015625 4.40625 -1.015625 C 5.101562 -1.015625 5.703125 -1.265625 6.203125 -1.765625 C 6.703125 -2.265625 6.953125 -2.859375 6.953125 -3.546875 Z M 8.078125 -3.546875 C 8.078125 -2.523438 7.722656 -1.660156 7.015625 -0.953125 C 6.273438 -0.242188 5.40625 0.109375 4.40625 0.109375 C 3.394531 0.109375 2.53125 -0.242188 1.8125 -0.953125 C 1.082031 -1.660156 0.71875 -2.523438 0.71875 -3.546875 C 0.71875 -4.566406 1.082031 -5.4375 1.8125 -6.15625 C 2.519531 -6.875 3.382812 -7.234375 4.40625 -7.234375 C 5.414062 -7.234375 6.285156 -6.875 7.015625 -6.15625 C 7.722656 -5.4375 8.078125 -4.566406 8.078125 -3.546875 Z M 8.078125 -3.546875 "/></g></g></g><g fill="#ffffff" fill-opacity="1"><g transform="translate(228.634073, 274.851836)"><g><path d="M 2.3125 0 L 1.203125 0 L 1.203125 -12 L 2.3125 -12 Z M 2.3125 0 "/></g></g></g><g fill="#ffffff" fill-opacity="1"><g transform="translate(235.897214, 274.851836)"><g><path d="M 6.0625 -1.203125 C 5.539062 -0.304688 4.757812 0.140625 3.71875 0.140625 C 2.925781 0.140625 2.304688 -0.117188 1.859375 -0.640625 C 1.421875 -1.160156 1.203125 -1.828125 1.203125 -2.640625 L 1.203125 -7.046875 L 2.3125 -7.046875 L 2.3125 -2.640625 C 2.3125 -2.179688 2.421875 -1.789062 2.640625 -1.46875 C 2.835938 -1.132812 3.175781 -0.96875 3.65625 -0.96875 C 4.53125 -0.96875 5.148438 -1.25 5.515625 -1.8125 C 5.878906 -2.351562 6.0625 -3.113281 6.0625 -4.09375 L 6.0625 -7.046875 L 7.1875 -7.046875 L 7.1875 0 L 6.0625 0 Z M 6.0625 -1.203125 "/></g></g></g><g fill="#ffffff" fill-opacity="1"><g transform="translate(247.783253, 274.851836)"><g><path d="M 0.3125 -6 L 0.3125 -7.046875 L 2.078125 -7.046875 L 2.078125 -9.78125 L 3.203125 -9.78125 L 3.203125 -7.046875 L 4.9375 -7.046875 L 4.9375 -6 L 3.203125 -6 L 3.203125 0 L 2.078125 0 L 2.078125 -6 Z M 0.3125 -6 "/></g></g></g><g fill="#ffffff" fill-opacity="1"><g transform="translate(256.789982, 274.851836)"><g><path d="M 2.34375 -9.46875 C 2.476562 -9.332031 2.546875 -9.164062 2.546875 -8.96875 C 2.546875 -8.769531 2.476562 -8.601562 2.34375 -8.46875 C 2.195312 -8.320312 2.03125 -8.25 1.84375 -8.25 C 1.632812 -8.25 1.460938 -8.320312 1.328125 -8.46875 C 1.191406 -8.601562 1.125 -8.769531 1.125 -8.96875 C 1.125 -9.164062 1.191406 -9.332031 1.328125 -9.46875 C 1.460938 -9.613281 1.632812 -9.6875 1.84375 -9.6875 C 2.03125 -9.6875 2.195312 -9.613281 2.34375 -9.46875 Z M 2.40625 0 L 1.28125 0 L 1.28125 -7.046875 L 2.40625 -7.046875 Z M 2.40625 0 "/></g></g></g><g fill="#ffffff" fill-opacity="1"><g transform="translate(264.19709, 274.851836)"><g><path d="M 6.953125 -3.546875 C 6.953125 -4.253906 6.703125 -4.859375 6.203125 -5.359375 C 5.703125 -5.859375 5.101562 -6.109375 4.40625 -6.109375 C 3.695312 -6.109375 3.09375 -5.859375 2.59375 -5.359375 C 2.09375 -4.859375 1.84375 -4.253906 1.84375 -3.546875 C 1.84375 -2.859375 2.09375 -2.265625 2.59375 -1.765625 C 3.09375 -1.265625 3.695312 -1.015625 4.40625 -1.015625 C 5.101562 -1.015625 5.703125 -1.265625 6.203125 -1.765625 C 6.703125 -2.265625 6.953125 -2.859375 6.953125 -3.546875 Z M 8.078125 -3.546875 C 8.078125 -2.523438 7.722656 -1.660156 7.015625 -0.953125 C 6.273438 -0.242188 5.40625 0.109375 4.40625 0.109375 C 3.394531 0.109375 2.53125 -0.242188 1.8125 -0.953125 C 1.082031 -1.660156 0.71875 -2.523438 0.71875 -3.546875 C 0.71875 -4.566406 1.082031 -5.4375 1.8125 -6.15625 C 2.519531 -6.875 3.382812 -7.234375 4.40625 -7.234375 C 5.414062 -7.234375 6.285156 -6.875 7.015625 -6.15625 C 7.722656 -5.4375 8.078125 -4.566406 8.078125 -3.546875 Z M 8.078125 -3.546875 "/></g></g></g><g fill="#ffffff" fill-opacity="1"><g transform="translate(276.738967, 274.851836)"><g><path d="M 6.0625 0 L 6.0625 -4.40625 C 6.0625 -4.863281 5.960938 -5.253906 5.765625 -5.578125 C 5.546875 -5.898438 5.195312 -6.0625 4.71875 -6.0625 C 4.238281 -6.0625 3.847656 -5.972656 3.546875 -5.796875 C 3.253906 -5.609375 3.015625 -5.375 2.828125 -5.09375 C 2.484375 -4.550781 2.3125 -3.832031 2.3125 -2.9375 L 2.3125 0 L 1.203125 0 L 1.203125 -7.046875 L 2.3125 -7.046875 L 2.3125 -5.828125 C 2.550781 -6.222656 2.851562 -6.546875 3.21875 -6.796875 C 3.601562 -7.054688 4.046875 -7.1875 4.546875 -7.1875 C 5.046875 -7.1875 5.453125 -7.113281 5.765625 -6.96875 C 6.066406 -6.820312 6.328125 -6.628906 6.546875 -6.390625 C 6.972656 -5.878906 7.1875 -5.21875 7.1875 -4.40625 L 7.1875 0 Z M 6.0625 0 "/></g></g></g><g fill="#ffffff" fill-opacity="1"><g transform="translate(288.625006, 274.851836)"><g><path d="M 2.21875 -1.015625 C 2.5 -0.816406 2.863281 -0.71875 3.3125 -0.71875 C 4.332031 -0.71875 4.84375 -1.101562 4.84375 -1.875 C 4.84375 -2.320312 4.476562 -2.660156 3.75 -2.890625 C 3.4375 -3.003906 3.101562 -3.101562 2.75 -3.1875 C 2.382812 -3.269531 2.050781 -3.378906 1.75 -3.515625 C 1.382812 -3.691406 1.109375 -3.90625 0.921875 -4.15625 C 0.742188 -4.414062 0.65625 -4.722656 0.65625 -5.078125 C 0.65625 -5.773438 0.898438 -6.300781 1.390625 -6.65625 C 1.878906 -7.019531 2.46875 -7.203125 3.15625 -7.203125 C 3.832031 -7.203125 4.394531 -7.0625 4.84375 -6.78125 C 5.289062 -6.507812 5.597656 -6.015625 5.765625 -5.296875 L 4.5625 -5.296875 C 4.4375 -5.691406 4.25 -5.953125 4 -6.078125 C 3.757812 -6.203125 3.46875 -6.265625 3.125 -6.265625 C 2.769531 -6.265625 2.46875 -6.191406 2.21875 -6.046875 C 1.96875 -5.890625 1.84375 -5.65625 1.84375 -5.34375 C 1.84375 -5.019531 1.945312 -4.785156 2.15625 -4.640625 C 2.363281 -4.503906 2.617188 -4.378906 2.921875 -4.265625 C 3.234375 -4.171875 3.570312 -4.085938 3.9375 -4.015625 C 4.289062 -3.929688 4.625 -3.8125 4.9375 -3.65625 C 5.664062 -3.320312 6.03125 -2.773438 6.03125 -2.015625 C 6.03125 -1.253906 5.757812 -0.695312 5.21875 -0.34375 C 4.9375 -0.15625 4.628906 -0.015625 4.296875 0.078125 C 3.984375 0.160156 3.632812 0.203125 3.25 0.203125 C 1.613281 0.203125 0.675781 -0.519531 0.4375 -1.96875 L 1.609375 -1.96875 C 1.734375 -1.507812 1.9375 -1.191406 2.21875 -1.015625 Z M 2.21875 -1.015625 "/></g></g></g></svg>