<svg xmlns="http://www.w3.org/2000/svg" xmlns:xlink="http://www.w3.org/1999/xlink" width="500" zoomAndPan="magnify" viewBox="0 0 375 374.999991" height="500" preserveAspectRatio="xMidYMid meet" version="1.0"><defs><g/><clipPath id="500f8f1d49"><path d="M 22 168 L 122.917969 168 L 122.917969 243 L 22 243 Z M 22 168 " clip-rule="nonzero"/></clipPath><clipPath id="dd7035b69d"><path d="M 30 130 L 122.917969 130 L 122.917969 216 L 30 216 Z M 30 130 " clip-rule="nonzero"/></clipPath><clipPath id="eca0396eb3"><path d="M 252.695312 133.707031 L 353.195312 133.707031 L 353.195312 244.707031 L 252.695312 244.707031 Z M 252.695312 133.707031 " clip-rule="nonzero"/></clipPath><clipPath id="df9b2f1788"><path d="M 112.488281 163.257812 L 262.488281 163.257812 L 262.488281 245 L 112.488281 245 Z M 112.488281 163.257812 " clip-rule="nonzero"/></clipPath></defs><g clip-path="url(#500f8f1d49)"><path fill="#ffffff" d="M 78.402344 242.535156 C 83.636719 242.535156 88.378906 242.074219 92.65625 241.191406 C 96.921875 240.285156 100.839844 238.992188 104.386719 237.3125 C 107.9375 235.621094 111.222656 233.582031 114.285156 231.191406 C 117.3125 228.8125 120.242188 226.117188 123.011719 223.105469 L 107.78125 207.730469 C 68.703125 244.972656 23.410156 218.214844 25.304688 168.5625 C 21.667969 179.960938 21.710938 193.015625 25.332031 204.410156 C 27.148438 210.003906 29.710938 215.132812 33.027344 219.765625 C 36.363281 224.4375 40.332031 228.445312 44.941406 231.839844 C 49.550781 235.234375 54.679688 237.847656 60.300781 239.714844 C 65.945312 241.578125 71.980469 242.511719 78.402344 242.535156 " fill-opacity="1" fill-rule="nonzero"/></g><g clip-path="url(#dd7035b69d)"><path fill="#ffffff" d="M 62.328125 215.488281 C 60.144531 214.054688 58.175781 212.34375 56.414062 210.371094 C 53.617188 207.234375 51.464844 203.605469 49.941406 199.484375 C 46.851562 191.167969 46.820312 181.113281 49.996094 172.808594 C 51.519531 168.71875 53.722656 165.140625 56.519531 162.035156 C 59.34375 158.925781 62.683594 156.519531 66.519531 154.757812 C 70.347656 152.996094 74.570312 152.113281 79.1875 152.089844 C 82.785156 152.089844 86.179688 152.578125 89.359375 153.5625 C 92.546875 154.550781 95.582031 155.972656 98.480469 157.785156 C 101.382812 159.625 104.203125 161.800781 107 164.367188 L 122.234375 146.804688 C 118.886719 143.464844 115.210938 140.539062 111.171875 138.019531 C 107.132812 135.511719 102.523438 133.570312 97.339844 132.171875 C 92.136719 130.742188 86.148438 130.042969 79.339844 130.019531 C 49.460938 130.132812 23.617188 154.492188 32.765625 186.59375 C 36.792969 200.738281 46.90625 213.164062 62.328125 215.488281 Z M 62.328125 215.488281 " fill-opacity="1" fill-rule="nonzero"/></g><g clip-path="url(#eca0396eb3)"><path fill="#ffffff" d="M 314.492188 201.359375 L 315.234375 201.351562 C 320.96875 201.285156 327.3125 206.050781 327.40625 210.839844 C 327.496094 215.574219 321.390625 220.332031 317.832031 220.371094 C 317.832031 220.371094 310.40625 220.476562 308.5625 220.570312 C 308.179688 220.589844 307.796875 220.601562 307.417969 220.605469 L 286.648438 220.832031 C 283.6875 220.863281 281.253906 223.191406 281.164062 226.050781 C 281.070312 229 283.597656 231.390625 286.636719 231.359375 L 300.464844 231.21875 C 301.320312 231.207031 302 231.871094 301.992188 232.699219 C 301.992188 232.710938 301.992188 232.722656 301.992188 232.738281 C 301.988281 233.632812 301.230469 234.367188 300.308594 234.375 L 294.019531 234.441406 C 291.0625 234.472656 288.628906 236.796875 288.539062 239.660156 C 288.441406 242.609375 290.972656 245 294.011719 244.96875 L 320.855469 244.691406 C 321.273438 244.6875 321.679688 244.636719 322.070312 244.546875 C 330.917969 243.855469 338.445312 240.527344 343.972656 234.832031 C 349.871094 228.75 353.050781 220.445312 353.167969 210.820312 L 353.171875 210.65625 C 353.289062 201.011719 350.292969 192.695312 344.503906 186.609375 C 338.425781 180.21875 329.808594 176.898438 319.589844 177.003906 L 315.148438 177.046875 C 314.769531 177.050781 314.390625 177.074219 314.019531 177.109375 L 289.847656 177.332031 C 288.757812 177.304688 288.003906 177.289062 288.003906 177.289062 C 284.445312 177.21875 278.382812 172.40625 278.515625 167.671875 C 278.652344 162.882812 285.035156 158.175781 290.769531 158.292969 L 295.714844 158.386719 C 295.910156 158.390625 296.105469 158.390625 296.296875 158.382812 C 296.753906 158.371094 297.207031 158.363281 297.667969 158.371094 L 312.753906 158.644531 L 318.039062 158.746094 L 325.410156 158.890625 C 328.449219 158.949219 331 156.582031 330.933594 153.628906 C 330.867188 150.769531 328.457031 148.417969 325.496094 148.363281 L 318.003906 148.21875 L 315.472656 148.167969 C 314.613281 148.152344 313.914062 147.460938 313.910156 146.628906 L 313.910156 146.585938 C 313.910156 145.699219 314.648438 144.996094 315.5625 145.011719 L 320.75 145.113281 C 323.789062 145.171875 326.339844 142.804688 326.273438 139.855469 C 326.207031 136.992188 323.796875 134.644531 320.835938 134.585938 L 292.203125 134.066406 C 291.832031 134.027344 291.457031 134 291.078125 133.992188 L 286.636719 133.90625 C 276.417969 133.707031 267.773438 136.953125 261.632812 143.289062 C 255.789062 149.320312 252.71875 157.609375 252.75 167.253906 L 252.75 167.421875 C 252.785156 177.046875 255.890625 185.378906 261.730469 191.511719 C 265.769531 195.75 270.914062 198.707031 276.878906 200.277344 M 272.894531 220.972656 L 268.820312 221.015625 C 265.828125 221.046875 263.371094 223.429688 263.335938 226.335938 C 263.300781 229.242188 265.695312 231.574219 268.691406 231.542969 L 272.761719 231.503906 C 275.757812 231.472656 278.214844 229.089844 278.25 226.183594 C 278.285156 223.273438 275.886719 220.941406 272.894531 220.972656 Z M 328.464844 140 C 328.453125 137.089844 330.875 134.78125 333.867188 134.839844 L 337.9375 134.917969 C 340.929688 134.972656 343.367188 137.378906 343.375 140.285156 C 343.382812 143.195312 340.964844 145.503906 337.972656 145.445312 L 333.902344 145.367188 C 330.910156 145.308594 328.472656 142.90625 328.464844 140 " fill-opacity="1" fill-rule="nonzero"/></g><g clip-path="url(#df9b2f1788)"><path fill="#ff0505" d="M 112.5 163.25 L 138.527344 222.777344 L 145.46875 205.394531 L 127.039062 163.25 Z M 247.945312 163.25 L 220.007812 227.464844 L 194.195312 163.25 L 180.960938 163.25 L 148.171875 244.828125 L 148.242188 244.996094 L 162.460938 244.996094 L 187.578125 182.511719 L 212.695312 244.996094 L 226.90625 244.996094 L 262.472656 163.25 Z M 247.945312 163.25 " fill-opacity="1" fill-rule="nonzero"/></g><g fill="#ffffff" fill-opacity="1"><g transform="translate(79.906231, 274.851779)"><g><path d="M 11.1875 -3.328125 C 10.78125 -2.285156 10.117188 -1.445312 9.203125 -0.8125 C 8.273438 -0.164062 7.253906 0.15625 6.140625 0.15625 C 4.640625 0.15625 3.351562 -0.394531 2.28125 -1.5 C 1.238281 -2.59375 0.71875 -3.898438 0.71875 -5.421875 C 0.71875 -6.179688 0.859375 -6.898438 1.140625 -7.578125 C 1.410156 -8.253906 1.789062 -8.847656 2.28125 -9.359375 C 3.351562 -10.472656 4.640625 -11.03125 6.140625 -11.03125 C 7.253906 -11.03125 8.269531 -10.710938 9.1875 -10.078125 C 10.101562 -9.441406 10.765625 -8.601562 11.171875 -7.5625 L 9.9375 -7.5625 C 9.351562 -8.644531 8.476562 -9.363281 7.3125 -9.71875 C 6.925781 -9.820312 6.484375 -9.875 5.984375 -9.875 C 5.484375 -9.875 4.972656 -9.753906 4.453125 -9.515625 C 3.921875 -9.273438 3.46875 -8.953125 3.09375 -8.546875 C 2.257812 -7.679688 1.84375 -6.640625 1.84375 -5.421875 C 1.84375 -4.210938 2.257812 -3.175781 3.09375 -2.3125 C 3.9375 -1.425781 4.953125 -0.984375 6.140625 -0.984375 C 6.953125 -0.984375 7.703125 -1.195312 8.390625 -1.625 C 9.054688 -2.050781 9.578125 -2.617188 9.953125 -3.328125 Z M 11.1875 -3.328125 "/></g></g></g><g fill="#ffffff" fill-opacity="1"><g transform="translate(95.311422, 274.851779)"><g><path d="M 2.09375 4 L 0.734375 4 L 3.109375 -1.15625 L 0.15625 -7.046875 L 1.4375 -7.046875 L 3.703125 -2.3125 L 5.71875 -7.046875 L 6.953125 -7.046875 Z M 2.09375 4 "/></g></g></g><g fill="#ffffff" fill-opacity="1"><g transform="translate(105.853779, 274.851779)"><g><path d="M 2.3125 0 L 1.203125 0 L 1.203125 -12 L 2.3125 -12 L 2.3125 -5.84375 C 2.382812 -5.925781 2.457031 -6.003906 2.53125 -6.078125 C 3.1875 -6.828125 4 -7.203125 4.96875 -7.203125 C 5.945312 -7.203125 6.769531 -6.828125 7.4375 -6.078125 C 8.082031 -5.347656 8.40625 -4.492188 8.40625 -3.515625 C 8.40625 -2.535156 8.082031 -1.679688 7.4375 -0.953125 C 6.769531 -0.210938 5.945312 0.15625 4.96875 0.15625 C 4 0.15625 3.1875 -0.210938 2.53125 -0.953125 C 2.457031 -1.035156 2.382812 -1.117188 2.3125 -1.203125 Z M 7.28125 -3.515625 C 7.28125 -4.203125 7.046875 -4.800781 6.578125 -5.3125 C 6.097656 -5.820312 5.503906 -6.078125 4.796875 -6.078125 C 4.097656 -6.078125 3.515625 -5.820312 3.046875 -5.3125 C 2.554688 -4.800781 2.3125 -4.203125 2.3125 -3.515625 C 2.3125 -2.835938 2.554688 -2.242188 3.046875 -1.734375 C 3.515625 -1.210938 4.097656 -0.953125 4.796875 -0.953125 C 5.503906 -0.953125 6.097656 -1.210938 6.578125 -1.734375 C 7.046875 -2.242188 7.28125 -2.835938 7.28125 -3.515625 Z M 7.28125 -3.515625 "/></g></g></g><g fill="#ffffff" fill-opacity="1"><g transform="translate(118.715579, 274.851779)"><g><path d="M 8.078125 -3.6875 L 8.078125 -3.09375 L 1.890625 -3.09375 C 1.992188 -2.476562 2.285156 -1.976562 2.765625 -1.59375 C 3.253906 -1.207031 3.800781 -1.015625 4.40625 -1.015625 C 4.8125 -1.015625 5.195312 -1.109375 5.5625 -1.296875 C 5.925781 -1.472656 6.234375 -1.726562 6.484375 -2.0625 L 7.765625 -2.0625 C 7.460938 -1.394531 7.015625 -0.867188 6.421875 -0.484375 C 5.804688 -0.0859375 5.191406 0.109375 4.578125 0.109375 C 3.941406 0.109375 3.40625 0.015625 2.96875 -0.171875 C 2.519531 -0.367188 2.132812 -0.628906 1.8125 -0.953125 C 1.082031 -1.660156 0.71875 -2.523438 0.71875 -3.546875 C 0.71875 -4.566406 1.082031 -5.4375 1.8125 -6.15625 C 2.519531 -6.875 3.382812 -7.234375 4.40625 -7.234375 C 5.382812 -7.234375 6.238281 -6.882812 6.96875 -6.1875 C 7.707031 -5.488281 8.078125 -4.65625 8.078125 -3.6875 Z M 6.890625 -4.046875 C 6.765625 -4.640625 6.46875 -5.132812 6 -5.53125 C 5.53125 -5.914062 5 -6.109375 4.40625 -6.109375 C 3.488281 -6.109375 2.765625 -5.695312 2.234375 -4.875 C 2.078125 -4.625 1.96875 -4.347656 1.90625 -4.046875 Z M 6.890625 -4.046875 "/></g></g></g><g fill="#ffffff" fill-opacity="1"><g transform="translate(131.177476, 274.851779)"><g><path d="M 4.8125 -5.578125 C 4.5625 -5.816406 4.285156 -5.9375 3.984375 -5.9375 C 3.691406 -5.9375 3.445312 -5.859375 3.25 -5.703125 C 3.03125 -5.523438 2.851562 -5.320312 2.71875 -5.09375 C 2.445312 -4.625 2.3125 -4.097656 2.3125 -3.515625 L 2.3125 0 L 1.203125 0 L 1.203125 -7.046875 L 2.3125 -7.046875 L 2.3125 -5.578125 L 2.375 -5.875 C 2.738281 -6.75 3.316406 -7.1875 4.109375 -7.1875 C 4.359375 -7.1875 4.59375 -7.140625 4.8125 -7.046875 Z M 4.8125 -5.578125 "/></g></g></g><g fill="#ffffff" fill-opacity="1"><g transform="translate(139.896271, 274.851779)"><g/></g></g><g fill="#ffffff" fill-opacity="1"><g transform="translate(147.959228, 274.851779)"><g><path d="M 9.84375 0.875 L 6.265625 -8.59375 L 2.703125 0.875 L 0.15625 -10.875 L 1.3125 -10.875 L 2.984375 -2.96875 L 6.265625 -11.515625 L 9.53125 -2.96875 L 11.234375 -10.875 L 12.375 -10.875 Z M 9.84375 0.875 "/></g></g></g><g fill="#ffffff" fill-opacity="1"><g transform="translate(164.228205, 274.851779)"><g><path d="M 6.796875 -3.515625 C 6.796875 -4.203125 6.5625 -4.800781 6.09375 -5.3125 C 5.613281 -5.820312 5.019531 -6.078125 4.3125 -6.078125 C 3.613281 -6.078125 3.03125 -5.820312 2.5625 -5.3125 C 2.082031 -4.800781 1.84375 -4.203125 1.84375 -3.515625 C 1.84375 -2.835938 2.082031 -2.242188 2.5625 -1.734375 C 3.03125 -1.210938 3.613281 -0.953125 4.3125 -0.953125 C 5.019531 -0.953125 5.613281 -1.210938 6.09375 -1.734375 C 6.5625 -2.242188 6.796875 -2.835938 6.796875 -3.515625 Z M 7.921875 0 L 6.796875 0 L 6.796875 -1.203125 C 6.734375 -1.117188 6.671875 -1.035156 6.609375 -0.953125 C 5.929688 -0.210938 5.109375 0.15625 4.140625 0.15625 C 3.171875 0.15625 2.359375 -0.210938 1.703125 -0.953125 C 1.046875 -1.679688 0.71875 -2.535156 0.71875 -3.515625 C 0.71875 -4.492188 1.046875 -5.347656 1.703125 -6.078125 C 2.359375 -6.828125 3.171875 -7.203125 4.140625 -7.203125 C 5.109375 -7.203125 5.929688 -6.828125 6.609375 -6.078125 C 6.671875 -6.003906 6.734375 -5.925781 6.796875 -5.84375 L 6.796875 -7.046875 L 7.921875 -7.046875 Z M 7.921875 0 "/></g></g></g><g fill="#ffffff" fill-opacity="1"><g transform="translate(177.090002, 274.851779)"><g><path d="M 0.3125 -6 L 0.3125 -7.046875 L 2.078125 -7.046875 L 2.078125 -9.78125 L 3.203125 -9.78125 L 3.203125 -7.046875 L 4.9375 -7.046875 L 4.9375 -6 L 3.203125 -6 L 3.203125 0 L 2.078125 0 L 2.078125 -6 Z M 0.3125 -6 "/></g></g></g><g fill="#ffffff" fill-opacity="1"><g transform="translate(186.09673, 274.851779)"><g><path d="M 0.3125 -6 L 0.3125 -7.046875 L 2.078125 -7.046875 L 2.078125 -9.78125 L 3.203125 -9.78125 L 3.203125 -7.046875 L 4.9375 -7.046875 L 4.9375 -6 L 3.203125 -6 L 3.203125 0 L 2.078125 0 L 2.078125 -6 Z M 0.3125 -6 "/></g></g></g><g fill="#ffffff" fill-opacity="1"><g transform="translate(195.103459, 274.851779)"><g/></g></g><g fill="#ffffff" fill-opacity="1"><g transform="translate(203.166416, 274.851779)"><g><path d="M 4.21875 -5.140625 C 2 -5.648438 0.890625 -6.597656 0.890625 -7.984375 C 0.890625 -9.003906 1.25 -9.769531 1.96875 -10.28125 C 2.6875 -10.789062 3.523438 -11.046875 4.484375 -11.046875 C 6.597656 -11.046875 7.851562 -10.253906 8.25 -8.671875 L 7.046875 -8.671875 C 6.828125 -9.609375 5.972656 -10.078125 4.484375 -10.078125 C 3.429688 -10.078125 2.695312 -9.769531 2.28125 -9.15625 C 2.125 -8.914062 2.046875 -8.617188 2.046875 -8.265625 C 2.046875 -7.597656 2.410156 -7.082031 3.140625 -6.71875 C 3.472656 -6.539062 4.195312 -6.304688 5.3125 -6.015625 C 6.414062 -5.722656 7.222656 -5.40625 7.734375 -5.0625 C 8.421875 -4.5625 8.765625 -3.867188 8.765625 -2.984375 C 8.765625 -1.890625 8.332031 -1.0625 7.46875 -0.5 C 6.75 -0.03125 5.851562 0.203125 4.78125 0.203125 C 2.375 0.203125 0.976562 -0.710938 0.59375 -2.546875 L 1.921875 -2.546875 C 2.117188 -1.390625 3.070312 -0.8125 4.78125 -0.8125 C 6 -0.8125 6.847656 -1.148438 7.328125 -1.828125 C 7.515625 -2.085938 7.609375 -2.445312 7.609375 -2.90625 C 7.609375 -3.351562 7.4375 -3.722656 7.09375 -4.015625 C 6.59375 -4.421875 5.632812 -4.796875 4.21875 -5.140625 Z M 4.21875 -5.140625 "/></g></g></g><g fill="#ffffff" fill-opacity="1"><g transform="translate(216.092196, 274.851779)"><g><path d="M 6.953125 -3.546875 C 6.953125 -4.253906 6.703125 -4.859375 6.203125 -5.359375 C 5.703125 -5.859375 5.101562 -6.109375 4.40625 -6.109375 C 3.695312 -6.109375 3.09375 -5.859375 2.59375 -5.359375 C 2.09375 -4.859375 1.84375 -4.253906 1.84375 -3.546875 C 1.84375 -2.859375 2.09375 -2.265625 2.59375 -1.765625 C 3.09375 -1.265625 3.695312 -1.015625 4.40625 -1.015625 C 5.101562 -1.015625 5.703125 -1.265625 6.203125 -1.765625 C 6.703125 -2.265625 6.953125 -2.859375 6.953125 -3.546875 Z M 8.078125 -3.546875 C 8.078125 -2.523438 7.722656 -1.660156 7.015625 -0.953125 C 6.273438 -0.242188 5.40625 0.109375 4.40625 0.109375 C 3.394531 0.109375 2.53125 -0.242188 1.8125 -0.953125 C 1.082031 -1.660156 0.71875 -2.523438 0.71875 -3.546875 C 0.71875 -4.566406 1.082031 -5.4375 1.8125 -6.15625 C 2.519531 -6.875 3.382812 -7.234375 4.40625 -7.234375 C 5.414062 -7.234375 6.285156 -6.875 7.015625 -6.15625 C 7.722656 -5.4375 8.078125 -4.566406 8.078125 -3.546875 Z M 8.078125 -3.546875 "/></g></g></g><g fill="#ffffff" fill-opacity="1"><g transform="translate(228.634073, 274.851779)"><g><path d="M 2.3125 0 L 1.203125 0 L 1.203125 -12 L 2.3125 -12 Z M 2.3125 0 "/></g></g></g><g fill="#ffffff" fill-opacity="1"><g transform="translate(235.897214, 274.851779)"><g><path d="M 6.0625 -1.203125 C 5.539062 -0.304688 4.757812 0.140625 3.71875 0.140625 C 2.925781 0.140625 2.304688 -0.117188 1.859375 -0.640625 C 1.421875 -1.160156 1.203125 -1.828125 1.203125 -2.640625 L 1.203125 -7.046875 L 2.3125 -7.046875 L 2.3125 -2.640625 C 2.3125 -2.179688 2.421875 -1.789062 2.640625 -1.46875 C 2.835938 -1.132812 3.175781 -0.96875 3.65625 -0.96875 C 4.53125 -0.96875 5.148438 -1.25 5.515625 -1.8125 C 5.878906 -2.351562 6.0625 -3.113281 6.0625 -4.09375 L 6.0625 -7.046875 L 7.1875 -7.046875 L 7.1875 0 L 6.0625 0 Z M 6.0625 -1.203125 "/></g></g></g><g fill="#ffffff" fill-opacity="1"><g transform="translate(247.783253, 274.851779)"><g><path d="M 0.3125 -6 L 0.3125 -7.046875 L 2.078125 -7.046875 L 2.078125 -9.78125 L 3.203125 -9.78125 L 3.203125 -7.046875 L 4.9375 -7.046875 L 4.9375 -6 L 3.203125 -6 L 3.203125 0 L 2.078125 0 L 2.078125 -6 Z M 0.3125 -6 "/></g></g></g><g fill="#ffffff" fill-opacity="1"><g transform="translate(256.789982, 274.851779)"><g><path d="M 2.34375 -9.46875 C 2.476562 -9.332031 2.546875 -9.164062 2.546875 -8.96875 C 2.546875 -8.769531 2.476562 -8.601562 2.34375 -8.46875 C 2.195312 -8.320312 2.03125 -8.25 1.84375 -8.25 C 1.632812 -8.25 1.460938 -8.320312 1.328125 -8.46875 C 1.191406 -8.601562 1.125 -8.769531 1.125 -8.96875 C 1.125 -9.164062 1.191406 -9.332031 1.328125 -9.46875 C 1.460938 -9.613281 1.632812 -9.6875 1.84375 -9.6875 C 2.03125 -9.6875 2.195312 -9.613281 2.34375 -9.46875 Z M 2.40625 0 L 1.28125 0 L 1.28125 -7.046875 L 2.40625 -7.046875 Z M 2.40625 0 "/></g></g></g><g fill="#ffffff" fill-opacity="1"><g transform="translate(264.19709, 274.851779)"><g><path d="M 6.953125 -3.546875 C 6.953125 -4.253906 6.703125 -4.859375 6.203125 -5.359375 C 5.703125 -5.859375 5.101562 -6.109375 4.40625 -6.109375 C 3.695312 -6.109375 3.09375 -5.859375 2.59375 -5.359375 C 2.09375 -4.859375 1.84375 -4.253906 1.84375 -3.546875 C 1.84375 -2.859375 2.09375 -2.265625 2.59375 -1.765625 C 3.09375 -1.265625 3.695312 -1.015625 4.40625 -1.015625 C 5.101562 -1.015625 5.703125 -1.265625 6.203125 -1.765625 C 6.703125 -2.265625 6.953125 -2.859375 6.953125 -3.546875 Z M 8.078125 -3.546875 C 8.078125 -2.523438 7.722656 -1.660156 7.015625 -0.953125 C 6.273438 -0.242188 5.40625 0.109375 4.40625 0.109375 C 3.394531 0.109375 2.53125 -0.242188 1.8125 -0.953125 C 1.082031 -1.660156 0.71875 -2.523438 0.71875 -3.546875 C 0.71875 -4.566406 1.082031 -5.4375 1.8125 -6.15625 C 2.519531 -6.875 3.382812 -7.234375 4.40625 -7.234375 C 5.414062 -7.234375 6.285156 -6.875 7.015625 -6.15625 C 7.722656 -5.4375 8.078125 -4.566406 8.078125 -3.546875 Z M 8.078125 -3.546875 "/></g></g></g><g fill="#ffffff" fill-opacity="1"><g transform="translate(276.738967, 274.851779)"><g><path d="M 6.0625 0 L 6.0625 -4.40625 C 6.0625 -4.863281 5.960938 -5.253906 5.765625 -5.578125 C 5.546875 -5.898438 5.195312 -6.0625 4.71875 -6.0625 C 4.238281 -6.0625 3.847656 -5.972656 3.546875 -5.796875 C 3.253906 -5.609375 3.015625 -5.375 2.828125 -5.09375 C 2.484375 -4.550781 2.3125 -3.832031 2.3125 -2.9375 L 2.3125 0 L 1.203125 0 L 1.203125 -7.046875 L 2.3125 -7.046875 L 2.3125 -5.828125 C 2.550781 -6.222656 2.851562 -6.546875 3.21875 -6.796875 C 3.601562 -7.054688 4.046875 -7.1875 4.546875 -7.1875 C 5.046875 -7.1875 5.453125 -7.113281 5.765625 -6.96875 C 6.066406 -6.820312 6.328125 -6.628906 6.546875 -6.390625 C 6.972656 -5.878906 7.1875 -5.21875 7.1875 -4.40625 L 7.1875 0 Z M 6.0625 0 "/></g></g></g><g fill="#ffffff" fill-opacity="1"><g transform="translate(288.625006, 274.851779)"><g><path d="M 2.21875 -1.015625 C 2.5 -0.816406 2.863281 -0.71875 3.3125 -0.71875 C 4.332031 -0.71875 4.84375 -1.101562 4.84375 -1.875 C 4.84375 -2.320312 4.476562 -2.660156 3.75 -2.890625 C 3.4375 -3.003906 3.101562 -3.101562 2.75 -3.1875 C 2.382812 -3.269531 2.050781 -3.378906 1.75 -3.515625 C 1.382812 -3.691406 1.109375 -3.90625 0.921875 -4.15625 C 0.742188 -4.414062 0.65625 -4.722656 0.65625 -5.078125 C 0.65625 -5.773438 0.898438 -6.300781 1.390625 -6.65625 C 1.878906 -7.019531 2.46875 -7.203125 3.15625 -7.203125 C 3.832031 -7.203125 4.394531 -7.0625 4.84375 -6.78125 C 5.289062 -6.507812 5.597656 -6.015625 5.765625 -5.296875 L 4.5625 -5.296875 C 4.4375 -5.691406 4.25 -5.953125 4 -6.078125 C 3.757812 -6.203125 3.46875 -6.265625 3.125 -6.265625 C 2.769531 -6.265625 2.46875 -6.191406 2.21875 -6.046875 C 1.96875 -5.890625 1.84375 -5.65625 1.84375 -5.34375 C 1.84375 -5.019531 1.945312 -4.785156 2.15625 -4.640625 C 2.363281 -4.503906 2.617188 -4.378906 2.921875 -4.265625 C 3.234375 -4.171875 3.570312 -4.085938 3.9375 -4.015625 C 4.289062 -3.929688 4.625 -3.8125 4.9375 -3.65625 C 5.664062 -3.320312 6.03125 -2.773438 6.03125 -2.015625 C 6.03125 -1.253906 5.757812 -0.695312 5.21875 -0.34375 C 4.9375 -0.15625 4.628906 -0.015625 4.296875 0.078125 C 3.984375 0.160156 3.632812 0.203125 3.25 0.203125 C 1.613281 0.203125 0.675781 -0.519531 0.4375 -1.96875 L 1.609375 -1.96875 C 1.734375 -1.507812 1.9375 -1.191406 2.21875 -1.015625 Z M 2.21875 -1.015625 "/></g></g></g></svg>