<svg xmlns="http://www.w3.org/2000/svg" xmlns:xlink="http://www.w3.org/1999/xlink" width="500" zoomAndPan="magnify" viewBox="0 0 375 374.999991" height="500" preserveAspectRatio="xMidYMid meet" version="1.0"><defs><clipPath id="d99cf53ea4"><path d="M 22 162 L 122.917969 162 L 122.917969 237 L 22 237 Z M 22 162 " clip-rule="nonzero"/></clipPath><clipPath id="7df73307c2"><path d="M 30 124 L 122.917969 124 L 122.917969 210 L 30 210 Z M 30 124 " clip-rule="nonzero"/></clipPath><clipPath id="efdf339e26"><path d="M 252.695312 127.707031 L 353.195312 127.707031 L 353.195312 238.707031 L 252.695312 238.707031 Z M 252.695312 127.707031 " clip-rule="nonzero"/></clipPath><clipPath id="b98ed0b2e3"><path d="M 112.488281 157.257812 L 262.488281 157.257812 L 262.488281 239 L 112.488281 239 Z M 112.488281 157.257812 " clip-rule="nonzero"/></clipPath></defs><g clip-path="url(#d99cf53ea4)"><path fill="#ffffff" d="M 78.402344 236.535156 C 83.636719 236.535156 88.378906 236.074219 92.65625 235.191406 C 96.921875 234.285156 100.839844 232.992188 104.386719 231.3125 C 107.9375 229.621094 111.222656 227.582031 114.285156 225.191406 C 117.3125 222.8125 120.242188 220.117188 123.011719 217.105469 L 107.78125 201.730469 C 68.703125 238.972656 23.410156 212.214844 25.304688 162.5625 C 21.667969 173.960938 21.710938 187.015625 25.332031 198.410156 C 27.148438 204.003906 29.710938 209.132812 33.027344 213.765625 C 36.363281 218.4375 40.332031 222.445312 44.941406 225.839844 C 49.550781 229.234375 54.679688 231.847656 60.300781 233.714844 C 65.945312 235.578125 71.980469 236.511719 78.402344 236.535156 " fill-opacity="1" fill-rule="nonzero"/></g><g clip-path="url(#7df73307c2)"><path fill="#0003f6" d="M 62.328125 209.488281 C 60.144531 208.054688 58.175781 206.34375 56.414062 204.371094 C 53.617188 201.234375 51.464844 197.605469 49.941406 193.484375 C 46.851562 185.167969 46.820312 175.113281 49.996094 166.808594 C 51.519531 162.71875 53.722656 159.140625 56.519531 156.035156 C 59.34375 152.925781 62.683594 150.519531 66.519531 148.757812 C 70.347656 146.996094 74.570312 146.113281 79.1875 146.089844 C 82.785156 146.089844 86.179688 146.578125 89.359375 147.5625 C 92.546875 148.550781 95.582031 149.972656 98.480469 151.785156 C 101.382812 153.625 104.203125 155.800781 107 158.367188 L 122.234375 140.804688 C 118.886719 137.464844 115.210938 134.539062 111.171875 132.019531 C 107.132812 129.511719 102.523438 127.570312 97.339844 126.171875 C 92.136719 124.742188 86.148438 124.042969 79.339844 124.019531 C 49.460938 124.132812 23.617188 148.492188 32.765625 180.59375 C 36.792969 194.738281 46.90625 207.164062 62.328125 209.488281 Z M 62.328125 209.488281 " fill-opacity="1" fill-rule="nonzero"/></g><g clip-path="url(#efdf339e26)"><path fill="#0003f6" d="M 314.492188 195.359375 L 315.234375 195.351562 C 320.96875 195.285156 327.3125 200.050781 327.40625 204.839844 C 327.496094 209.574219 321.390625 214.332031 317.832031 214.371094 C 317.832031 214.371094 310.40625 214.476562 308.5625 214.570312 C 308.179688 214.589844 307.796875 214.601562 307.417969 214.605469 L 286.648438 214.832031 C 283.6875 214.863281 281.253906 217.191406 281.164062 220.050781 C 281.070312 223 283.597656 225.390625 286.636719 225.359375 L 300.464844 225.21875 C 301.320312 225.207031 302 225.871094 301.992188 226.699219 C 301.992188 226.710938 301.992188 226.722656 301.992188 226.738281 C 301.988281 227.632812 301.230469 228.367188 300.308594 228.375 L 294.019531 228.441406 C 291.0625 228.472656 288.628906 230.796875 288.539062 233.660156 C 288.441406 236.609375 290.972656 239 294.011719 238.96875 L 320.855469 238.691406 C 321.273438 238.6875 321.679688 238.636719 322.070312 238.546875 C 330.917969 237.855469 338.445312 234.527344 343.972656 228.832031 C 349.871094 222.75 353.050781 214.445312 353.167969 204.820312 L 353.171875 204.65625 C 353.289062 195.011719 350.292969 186.695312 344.503906 180.609375 C 338.425781 174.21875 329.808594 170.898438 319.589844 171.003906 L 315.148438 171.046875 C 314.769531 171.050781 314.390625 171.074219 314.019531 171.109375 L 289.847656 171.332031 C 288.757812 171.304688 288.003906 171.289062 288.003906 171.289062 C 284.445312 171.21875 278.382812 166.40625 278.515625 161.671875 C 278.652344 156.882812 285.035156 152.175781 290.769531 152.292969 L 295.714844 152.386719 C 295.910156 152.390625 296.105469 152.390625 296.296875 152.382812 C 296.753906 152.371094 297.207031 152.363281 297.667969 152.371094 L 312.753906 152.644531 L 318.039062 152.746094 L 325.410156 152.890625 C 328.449219 152.949219 331 150.582031 330.933594 147.628906 C 330.867188 144.769531 328.457031 142.417969 325.496094 142.363281 L 318.003906 142.21875 L 315.472656 142.167969 C 314.613281 142.152344 313.914062 141.460938 313.910156 140.628906 L 313.910156 140.585938 C 313.910156 139.699219 314.648438 138.996094 315.5625 139.011719 L 320.75 139.113281 C 323.789062 139.171875 326.339844 136.804688 326.273438 133.855469 C 326.207031 130.992188 323.796875 128.644531 320.835938 128.585938 L 292.203125 128.066406 C 291.832031 128.027344 291.457031 128 291.078125 127.992188 L 286.636719 127.90625 C 276.417969 127.707031 267.773438 130.953125 261.632812 137.289062 C 255.789062 143.320312 252.71875 151.609375 252.75 161.253906 L 252.75 161.421875 C 252.785156 171.046875 255.890625 179.378906 261.730469 185.511719 C 265.769531 189.75 270.914062 192.707031 276.878906 194.277344 M 272.894531 214.972656 L 268.820312 215.015625 C 265.828125 215.046875 263.371094 217.429688 263.335938 220.335938 C 263.300781 223.242188 265.695312 225.574219 268.691406 225.542969 L 272.761719 225.503906 C 275.757812 225.472656 278.214844 223.089844 278.25 220.183594 C 278.285156 217.273438 275.886719 214.941406 272.894531 214.972656 Z M 328.464844 134 C 328.453125 131.089844 330.875 128.78125 333.867188 128.839844 L 337.9375 128.917969 C 340.929688 128.972656 343.367188 131.378906 343.375 134.285156 C 343.382812 137.195312 340.964844 139.503906 337.972656 139.445312 L 333.902344 139.367188 C 330.910156 139.308594 328.472656 136.90625 328.464844 134 " fill-opacity="1" fill-rule="nonzero"/></g><g clip-path="url(#b98ed0b2e3)"><path fill="#ffffff" d="M 112.5 157.25 L 138.527344 216.777344 L 145.46875 199.394531 L 127.039062 157.25 Z M 247.945312 157.25 L 220.007812 221.464844 L 194.195312 157.25 L 180.960938 157.25 L 148.171875 238.828125 L 148.242188 238.996094 L 162.460938 238.996094 L 187.578125 176.511719 L 212.695312 238.996094 L 226.90625 238.996094 L 262.472656 157.25 Z M 247.945312 157.25 " fill-opacity="1" fill-rule="nonzero"/></g></svg>