<svg xmlns="http://www.w3.org/2000/svg" xmlns:xlink="http://www.w3.org/1999/xlink" width="500" zoomAndPan="magnify" viewBox="0 0 375 374.999991" height="500" preserveAspectRatio="xMidYMid meet" version="1.0"><defs><clipPath id="c675faf75d"><path d="M 22 168 L 122.917969 168 L 122.917969 243 L 22 243 Z M 22 168 " clip-rule="nonzero"/></clipPath><clipPath id="c7bd478cc9"><path d="M 30 130 L 122.917969 130 L 122.917969 216 L 30 216 Z M 30 130 " clip-rule="nonzero"/></clipPath><clipPath id="824beac143"><path d="M 252.695312 133.707031 L 353.195312 133.707031 L 353.195312 244.707031 L 252.695312 244.707031 Z M 252.695312 133.707031 " clip-rule="nonzero"/></clipPath><clipPath id="3defe076de"><path d="M 112.488281 163.257812 L 262.488281 163.257812 L 262.488281 245 L 112.488281 245 Z M 112.488281 163.257812 " clip-rule="nonzero"/></clipPath></defs><g clip-path="url(#c675faf75d)"><path fill="#ffffff" d="M 78.402344 242.535156 C 83.636719 242.535156 88.378906 242.074219 92.65625 241.191406 C 96.921875 240.285156 100.839844 238.992188 104.386719 237.3125 C 107.9375 235.621094 111.222656 233.582031 114.285156 231.191406 C 117.3125 228.8125 120.242188 226.117188 123.011719 223.105469 L 107.78125 207.730469 C 68.703125 244.972656 23.410156 218.214844 25.304688 168.5625 C 21.667969 179.960938 21.710938 193.015625 25.332031 204.410156 C 27.148438 210.003906 29.710938 215.132812 33.027344 219.765625 C 36.363281 224.4375 40.332031 228.445312 44.941406 231.839844 C 49.550781 235.234375 54.679688 237.847656 60.300781 239.714844 C 65.945312 241.578125 71.980469 242.511719 78.402344 242.535156 " fill-opacity="1" fill-rule="nonzero"/></g><g clip-path="url(#c7bd478cc9)"><path fill="#e1a200" d="M 62.328125 215.488281 C 60.144531 214.054688 58.175781 212.34375 56.414062 210.371094 C 53.617188 207.234375 51.464844 203.605469 49.941406 199.484375 C 46.851562 191.167969 46.820312 181.113281 49.996094 172.808594 C 51.519531 168.71875 53.722656 165.140625 56.519531 162.035156 C 59.34375 158.925781 62.683594 156.519531 66.519531 154.757812 C 70.347656 152.996094 74.570312 152.113281 79.1875 152.089844 C 82.785156 152.089844 86.179688 152.578125 89.359375 153.5625 C 92.546875 154.550781 95.582031 155.972656 98.480469 157.785156 C 101.382812 159.625 104.203125 161.800781 107 164.367188 L 122.234375 146.804688 C 118.886719 143.464844 115.210938 140.539062 111.171875 138.019531 C 107.132812 135.511719 102.523438 133.570312 97.339844 132.171875 C 92.136719 130.742188 86.148438 130.042969 79.339844 130.019531 C 49.460938 130.132812 23.617188 154.492188 32.765625 186.59375 C 36.792969 200.738281 46.90625 213.164062 62.328125 215.488281 Z M 62.328125 215.488281 " fill-opacity="1" fill-rule="nonzero"/></g><g clip-path="url(#824beac143)"><path fill="#ffffff" d="M 314.492188 201.359375 L 315.234375 201.351562 C 320.96875 201.285156 327.3125 206.050781 327.40625 210.839844 C 327.496094 215.574219 321.390625 220.332031 317.832031 220.371094 C 317.832031 220.371094 310.40625 220.476562 308.5625 220.570312 C 308.179688 220.589844 307.796875 220.601562 307.417969 220.605469 L 286.648438 220.832031 C 283.6875 220.863281 281.253906 223.191406 281.164062 226.050781 C 281.070312 229 283.597656 231.390625 286.636719 231.359375 L 300.464844 231.21875 C 301.320312 231.207031 302 231.871094 301.992188 232.699219 C 301.992188 232.710938 301.992188 232.722656 301.992188 232.738281 C 301.988281 233.632812 301.230469 234.367188 300.308594 234.375 L 294.019531 234.441406 C 291.0625 234.472656 288.628906 236.796875 288.539062 239.660156 C 288.441406 242.609375 290.972656 245 294.011719 244.96875 L 320.855469 244.691406 C 321.273438 244.6875 321.679688 244.636719 322.070312 244.546875 C 330.917969 243.855469 338.445312 240.527344 343.972656 234.832031 C 349.871094 228.75 353.050781 220.445312 353.167969 210.820312 L 353.171875 210.65625 C 353.289062 201.011719 350.292969 192.695312 344.503906 186.609375 C 338.425781 180.21875 329.808594 176.898438 319.589844 177.003906 L 315.148438 177.046875 C 314.769531 177.050781 314.390625 177.074219 314.019531 177.109375 L 289.847656 177.332031 C 288.757812 177.304688 288.003906 177.289062 288.003906 177.289062 C 284.445312 177.21875 278.382812 172.40625 278.515625 167.671875 C 278.652344 162.882812 285.035156 158.175781 290.769531 158.292969 L 295.714844 158.386719 C 295.910156 158.390625 296.105469 158.390625 296.296875 158.382812 C 296.753906 158.371094 297.207031 158.363281 297.667969 158.371094 L 312.753906 158.644531 L 318.039062 158.746094 L 325.410156 158.890625 C 328.449219 158.949219 331 156.582031 330.933594 153.628906 C 330.867188 150.769531 328.457031 148.417969 325.496094 148.363281 L 318.003906 148.21875 L 315.472656 148.167969 C 314.613281 148.152344 313.914062 147.460938 313.910156 146.628906 L 313.910156 146.585938 C 313.910156 145.699219 314.648438 144.996094 315.5625 145.011719 L 320.75 145.113281 C 323.789062 145.171875 326.339844 142.804688 326.273438 139.855469 C 326.207031 136.992188 323.796875 134.644531 320.835938 134.585938 L 292.203125 134.066406 C 291.832031 134.027344 291.457031 134 291.078125 133.992188 L 286.636719 133.90625 C 276.417969 133.707031 267.773438 136.953125 261.632812 143.289062 C 255.789062 149.320312 252.71875 157.609375 252.75 167.253906 L 252.75 167.421875 C 252.785156 177.046875 255.890625 185.378906 261.730469 191.511719 C 265.769531 195.75 270.914062 198.707031 276.878906 200.277344 M 272.894531 220.972656 L 268.820312 221.015625 C 265.828125 221.046875 263.371094 223.429688 263.335938 226.335938 C 263.300781 229.242188 265.695312 231.574219 268.691406 231.542969 L 272.761719 231.503906 C 275.757812 231.472656 278.214844 229.089844 278.25 226.183594 C 278.285156 223.273438 275.886719 220.941406 272.894531 220.972656 Z M 328.464844 140 C 328.453125 137.089844 330.875 134.78125 333.867188 134.839844 L 337.9375 134.917969 C 340.929688 134.972656 343.367188 137.378906 343.375 140.285156 C 343.382812 143.195312 340.964844 145.503906 337.972656 145.445312 L 333.902344 145.367188 C 330.910156 145.308594 328.472656 142.90625 328.464844 140 " fill-opacity="1" fill-rule="nonzero"/></g><g clip-path="url(#3defe076de)"><path fill="#e1a200" d="M 112.5 163.25 L 138.527344 222.777344 L 145.46875 205.394531 L 127.039062 163.25 Z M 247.945312 163.25 L 220.007812 227.464844 L 194.195312 163.25 L 180.960938 163.25 L 148.171875 244.828125 L 148.242188 244.996094 L 162.460938 244.996094 L 187.578125 182.511719 L 212.695312 244.996094 L 226.90625 244.996094 L 262.472656 163.25 Z M 247.945312 163.25 " fill-opacity="1" fill-rule="nonzero"/></g></svg>